# 3ds Max Wavefront OBJ Exporter v0.99 - (c)2007 guruware
# File Created: 12.04.2025 21:57:53

mtllib ovni.mtl

#
# object ovini
#

v  0.0000 2.3768 -1.3916
v  0.6958 2.3768 -1.2052
v  0.8035 1.5733 -1.3916
v  0.0000 1.5733 -1.6069
v  0.0000 2.9650 -0.8035
v  -0.0000 3.1803 -0.0000
v  0.4017 2.9650 -0.6958
v  1.2052 2.3768 -0.6958
v  1.3916 1.5733 -0.8035
v  0.6958 2.9650 -0.4017
v  1.3916 2.3768 -0.0000
v  1.6069 1.5733 -0.0000
v  0.8035 2.9650 -0.0000
v  0.6958 2.9650 0.4017
v  1.2052 2.3768 0.6958
v  1.3916 1.5733 0.8035
v  0.0000 1.4166 -0.8848
v  0.4424 1.4166 -0.7663
v  0.5688 1.0433 -0.9852
v  0.0000 1.0433 -1.1376
v  0.7663 1.4166 -0.4424
v  0.9852 1.0433 -0.5688
v  0.4017 2.9650 0.6958
v  0.6958 2.3768 1.2052
v  0.8848 1.4166 -0.0000
v  1.1376 1.0433 -0.0000
v  0.8035 1.5733 1.3916
v  0.7663 1.4166 0.4424
v  0.9852 1.0433 0.5688
v  0.4424 1.4166 0.7663
v  0.5688 1.0433 0.9852
v  0.0000 2.9650 0.8035
v  0.0000 2.3768 1.3916
v  0.0000 1.4166 0.8848
v  0.0000 1.0433 1.1376
v  0.0000 1.5733 1.6069
v  -0.4424 1.4166 0.7663
v  -0.5688 1.0433 0.9852
v  -0.7663 1.4166 0.4424
v  -0.9852 1.0433 0.5688
v  -0.4017 2.9650 0.6958
v  -0.6958 2.3768 1.2052
v  -0.8848 1.4166 -0.0000
v  -1.1376 1.0433 -0.0000
v  -0.8035 1.5733 1.3916
v  -0.7663 1.4166 -0.4424
v  -0.9852 1.0433 -0.5688
v  -0.6958 2.9650 0.4017
v  -1.2052 2.3768 0.6958
v  -0.4424 1.4166 -0.7663
v  -0.5688 1.0433 -0.9852
v  -1.3916 1.5733 0.8035
v  -0.8035 2.9650 -0.0000
v  -1.3916 2.3768 -0.0000
v  -0.5806 1.2489 -1.0056
v  0.0000 1.2489 -1.1611
v  0.0000 1.0265 -1.3408
v  -0.6704 1.0265 -1.1611
v  -1.6069 1.5733 -0.0000
v  -1.0056 1.2489 -0.5806
v  -1.1611 1.0265 -0.6704
v  -1.1611 1.2489 -0.0000
v  -1.3408 1.0265 -0.0000
v  -1.0056 1.2489 0.5806
v  -1.1611 1.0265 0.6704
v  -1.2052 2.3768 -0.6958
v  -1.3916 1.5733 -0.8035
v  -0.6958 2.9650 -0.4017
v  -0.5806 1.2489 1.0056
v  -0.6704 1.0265 1.1611
v  0.0000 1.2489 1.1611
v  0.0000 1.0265 1.3408
v  0.5806 1.2489 1.0056
v  0.6704 1.0265 1.1611
v  -0.6958 2.3768 -1.2052
v  -0.8035 1.5733 -1.3916
v  -0.4017 2.9650 -0.6958
v  1.0056 1.2489 0.5806
v  1.1611 1.0265 0.6704
v  1.1611 1.2489 -0.0000
v  1.3408 1.0265 -0.0000
v  1.0056 1.2489 -0.5806
v  1.1611 1.0265 -0.6704
v  0.5806 1.2489 -1.0056
v  0.6704 1.0265 -1.1611
v  2.7755 1.5542 -1.3366
v  2.7012 1.7493 -1.3008
v  2.9981 1.7493 -0.0000
v  3.0806 1.5542 -0.0000
v  2.4980 1.8921 -1.2030
v  2.7725 1.8921 -0.0000
v  2.4980 1.2164 -1.2030
v  2.7012 1.3592 -1.3008
v  2.9981 1.3592 -0.0000
v  2.7725 1.2164 -0.0000
v  1.9207 1.5542 -2.4085
v  1.8693 1.7493 -2.3440
v  1.7287 1.8921 -2.1677
v  1.7287 1.2164 -2.1677
v  1.8693 1.3592 -2.3440
v  0.6855 1.5542 -3.0034
v  0.6671 1.7493 -2.9229
v  0.6169 1.8921 -2.7030
v  0.6169 1.2164 -2.7030
v  0.6671 1.3592 -2.9229
v  -0.6855 1.5542 -3.0034
v  -0.6671 1.7493 -2.9229
v  -0.6169 1.8921 -2.7030
v  -0.6169 1.2164 -2.7030
v  -0.6671 1.3592 -2.9229
v  -1.9207 1.5542 -2.4085
v  -1.8693 1.7493 -2.3440
v  -1.7287 1.8921 -2.1677
v  -1.7287 1.2164 -2.1677
v  -1.8693 1.3592 -2.3440
v  -2.7755 1.5542 -1.3366
v  -2.7012 1.7493 -1.3008
v  -2.4980 1.8921 -1.2030
v  -2.4980 1.2164 -1.2030
v  -2.7012 1.3592 -1.3008
v  -3.0806 1.5542 -0.0000
v  -2.9981 1.7493 -0.0000
v  -2.7725 1.8921 -0.0000
v  -2.7725 1.2164 -0.0000
v  -2.9981 1.3592 -0.0000
v  -2.7755 1.5542 1.3366
v  -2.7012 1.7493 1.3008
v  -2.4980 1.8921 1.2030
v  -2.4980 1.2164 1.2030
v  -2.7012 1.3592 1.3008
v  -1.9207 1.5542 2.4085
v  -1.8693 1.7493 2.3440
v  -1.7287 1.8921 2.1677
v  -1.7287 1.2164 2.1677
v  -1.8693 1.3592 2.3440
v  -0.6855 1.5542 3.0034
v  -0.6671 1.7493 2.9229
v  -0.6169 1.8921 2.7030
v  -0.6169 1.2164 2.7030
v  -0.6671 1.3592 2.9229
v  0.6855 1.5542 3.0034
v  0.6671 1.7493 2.9229
v  0.6169 1.8921 2.7030
v  0.6169 1.2164 2.7030
v  0.6671 1.3592 2.9229
v  1.9207 1.5542 2.4085
v  1.8693 1.7493 2.3440
v  1.7287 1.8921 2.1677
v  1.7287 1.2164 2.1677
v  1.8693 1.3592 2.3440
v  2.7755 1.5542 1.3366
v  2.7012 1.7493 1.3008
v  2.4980 1.8921 1.2030
v  2.4980 1.2164 1.2030
v  2.7012 1.3592 1.3008
v  0.0000 1.2164 -0.0000
v  0.0000 1.8921 -0.0000
# 157 vertices

vn 0.2506 0.2506 -0.9351
vn 0.0692 0.9636 -0.2582
vn 0.1862 0.6947 -0.6947
vn 0.6846 0.2506 -0.6846
vn 0.1890 0.9636 -0.1890
vn 0.5086 0.6947 -0.5086
vn 0.9351 0.2506 -0.2506
vn 0.2582 0.9636 -0.0692
vn 0.6947 0.6947 -0.1862
vn 0.2582 0.9636 0.0692
vn 0.6947 0.6947 0.1862
vn 0.9351 0.2506 0.2506
vn 0.2166 0.5475 -0.8083
vn 0.5917 0.5475 -0.5917
vn 0.5086 0.6947 0.5086
vn 0.8083 0.5474 -0.2166
vn 0.6846 0.2506 0.6846
vn 0.1890 0.9636 0.1890
vn 0.8083 0.5475 0.2166
vn 0.5917 0.5474 0.5917
vn 0.1862 0.6947 0.6947
vn 0.2166 0.5474 0.8083
vn 0.2506 0.2506 0.9351
vn 0.0692 0.9636 0.2582
vn -0.2166 0.5475 0.8083
vn -0.5917 0.5475 0.5917
vn -0.1862 0.6947 0.6947
vn -0.8083 0.5474 0.2166
vn -0.2506 0.2506 0.9351
vn -0.0692 0.9636 0.2582
vn -0.8083 0.5474 -0.2166
vn -0.5086 0.6947 0.5086
vn -0.5917 0.5475 -0.5917
vn -0.6846 0.2506 0.6846
vn -0.1890 0.9636 0.1890
vn -0.2166 0.5475 -0.8083
vn -0.6947 0.6947 0.1862
vn -0.2041 0.6150 -0.7616
vn -0.9351 0.2506 0.2506
vn -0.2582 0.9636 0.0692
vn -0.5576 0.6150 -0.5576
vn -0.7616 0.6150 -0.2041
vn -0.7616 0.6150 0.2041
vn -0.9351 0.2506 -0.2506
vn -0.2582 0.9636 -0.0692
vn -0.5576 0.6150 0.5576
vn -0.2041 0.6150 0.7616
vn -0.6947 0.6947 -0.1862
vn 0.2041 0.6150 0.7616
vn -0.6846 0.2506 -0.6846
vn -0.1890 0.9636 -0.1890
vn 0.5576 0.6150 0.5576
vn 0.7616 0.6150 0.2041
vn -0.5086 0.6947 -0.5086
vn 0.7616 0.6150 -0.2041
vn -0.2506 0.2506 -0.9351
vn -0.0692 0.9636 -0.2582
vn 0.5576 0.6150 -0.5576
vn 0.2041 0.6150 -0.7616
vn -0.1862 0.6947 -0.6947
vn -0.0605 0.9963 0.0605
vn -0.0826 0.9963 0.0221
vn -0.0826 0.9963 -0.0221
vn -0.0605 0.9963 -0.0605
vn -0.0221 0.9963 -0.0826
vn 0.0221 0.9963 -0.0826
vn 0.0605 0.9963 -0.0605
vn 0.0826 0.9963 -0.0221
vn 0.0826 0.9963 0.0221
vn 0.0605 0.9963 0.0605
vn 0.0221 0.9963 0.0826
vn -0.0221 0.9963 0.0826
vn 0.9012 0.3814 -0.2057
vn 0.5310 0.8387 -0.1212
vn 0.5310 -0.8387 -0.1212
vn 0.9012 -0.3814 -0.2057
vn 0.7227 0.3814 -0.5764
vn 0.4258 0.8387 -0.3396
vn 0.4258 -0.8387 -0.3396
vn 0.7227 -0.3814 -0.5764
vn 0.4011 0.3814 -0.8329
vn 0.2363 0.8387 -0.4907
vn 0.2363 -0.8387 -0.4907
vn 0.4011 -0.3814 -0.8329
vn -0.0000 0.3814 -0.9244
vn -0.0000 0.8387 -0.5446
vn -0.0000 -0.8387 -0.5446
vn -0.0000 -0.3814 -0.9244
vn -0.4011 0.3814 -0.8329
vn -0.2363 0.8387 -0.4907
vn -0.2363 -0.8387 -0.4907
vn -0.4011 -0.3814 -0.8329
vn -0.7227 0.3814 -0.5764
vn -0.4258 0.8387 -0.3396
vn -0.4258 -0.8387 -0.3396
vn -0.7227 -0.3814 -0.5764
vn -0.9012 0.3814 -0.2057
vn -0.5310 0.8387 -0.1212
vn -0.5310 -0.8387 -0.1212
vn -0.9012 -0.3814 -0.2057
vn -0.9012 0.3814 0.2057
vn -0.5310 0.8387 0.1212
vn -0.5310 -0.8387 0.1212
vn -0.9012 -0.3814 0.2057
vn -0.7227 0.3814 0.5764
vn -0.4258 0.8387 0.3396
vn -0.4258 -0.8387 0.3396
vn -0.7227 -0.3814 0.5764
vn -0.4011 0.3814 0.8329
vn -0.2363 0.8387 0.4907
vn -0.2363 -0.8387 0.4907
vn -0.4011 -0.3814 0.8329
vn -0.0000 0.3814 0.9244
vn -0.0000 0.8387 0.5446
vn -0.0000 -0.8387 0.5446
vn -0.0000 -0.3814 0.9244
vn 0.4011 0.3814 0.8329
vn 0.2363 0.8387 0.4907
vn 0.2363 -0.8387 0.4907
vn 0.4011 -0.3814 0.8329
vn 0.7227 0.3814 0.5764
vn 0.4258 0.8387 0.3396
vn 0.4258 -0.8387 0.3396
vn 0.7227 -0.3814 0.5764
vn 0.9012 0.3814 0.2057
vn 0.5310 0.8387 0.1212
vn -0.0000 -1.0000 -0.0000
vn 0.5310 -0.8387 0.1212
vn 0.9012 -0.3814 0.2057
# 129 vertex normals

vt 0.3546 0.1612 0.0000
vt 0.3396 0.1612 0.0000
vt 0.3396 0.0586 0.0000
vt 0.3546 0.0586 0.0000
vt 0.8200 0.2388 0.0000
vt 0.7487 0.1674 0.0000
vt 0.8461 0.1935 0.0000
vt 0.3546 0.2739 0.0000
vt 0.3396 0.2739 0.0000
vt 0.3245 0.1612 0.0000
vt 0.3245 0.0586 0.0000
vt 0.8461 0.1413 0.0000
vt 0.3245 0.2739 0.0000
vt 0.3094 0.1612 0.0000
vt 0.3094 0.0586 0.0000
vt 0.8200 0.0961 0.0000
vt 0.3094 0.2739 0.0000
vt 0.7748 0.0700 0.0000
vt 0.4894 0.2739 0.0000
vt 0.4744 0.2739 0.0000
vt 0.4744 0.1612 0.0000
vt 0.4894 0.1612 0.0000
vt 0.4744 0.0586 0.0000
vt 0.4894 0.0586 0.0000
vt 0.3964 0.7948 0.0000
vt 0.3963 0.8066 0.0000
vt 0.2064 0.8066 0.0000
vt 0.2065 0.7915 0.0000
vt 0.3964 0.8183 0.0000
vt 0.2065 0.8216 0.0000
vt 0.4594 0.2739 0.0000
vt 0.4594 0.1612 0.0000
vt 0.3967 0.8300 0.0000
vt 0.2069 0.8367 0.0000
vt 0.4594 0.0586 0.0000
vt 0.7226 0.0700 0.0000
vt 0.3972 0.8417 0.0000
vt 0.2076 0.8518 0.0000
vt 0.3979 0.8534 0.0000
vt 0.2085 0.8668 0.0000
vt 0.4444 0.2739 0.0000
vt 0.4444 0.1612 0.0000
vt 0.3988 0.8651 0.0000
vt 0.2097 0.8818 0.0000
vt 0.4444 0.0586 0.0000
vt 0.6774 0.0961 0.0000
vt 0.4000 0.8768 0.0000
vt 0.2112 0.8968 0.0000
vt 0.4000 0.7363 0.0000
vt 0.3988 0.7480 0.0000
vt 0.2097 0.7313 0.0000
vt 0.2112 0.7163 0.0000
vt 0.4295 0.2739 0.0000
vt 0.4295 0.1612 0.0000
vt 0.3979 0.7597 0.0000
vt 0.2085 0.7463 0.0000
vt 0.4295 0.0586 0.0000
vt 0.6513 0.1413 0.0000
vt 0.3972 0.7714 0.0000
vt 0.2076 0.7613 0.0000
vt 0.4145 0.2739 0.0000
vt 0.4145 0.1612 0.0000
vt 0.3967 0.7831 0.0000
vt 0.2069 0.7764 0.0000
vt 0.4145 0.0586 0.0000
vt 0.6513 0.1935 0.0000
vt 0.3995 0.2739 0.0000
vt 0.3995 0.1612 0.0000
vt 0.5852 0.9460 0.0000
vt 0.5993 0.9521 0.0000
vt 0.6454 0.8488 0.0000
vt 0.6291 0.8417 0.0000
vt 0.3995 0.0586 0.0000
vt 0.6774 0.2388 0.0000
vt 0.5452 0.9194 0.0000
vt 0.5572 0.9291 0.0000
vt 0.6152 0.8306 0.0000
vt 0.5137 0.8831 0.0000
vt 0.5227 0.8956 0.0000
vt 0.6049 0.8161 0.0000
vt 0.4930 0.8398 0.0000
vt 0.4983 0.8542 0.0000
vt 0.5987 0.7995 0.0000
vt 0.3846 0.1612 0.0000
vt 0.3846 0.0586 0.0000
vt 0.7226 0.2649 0.0000
vt 0.4846 0.7925 0.0000
vt 0.4859 0.8078 0.0000
vt 0.5972 0.7818 0.0000
vt 0.8405 0.8094 0.0000
vt 0.8419 0.7940 0.0000
vt 0.7294 0.7823 0.0000
vt 0.7277 0.8000 0.0000
vt 0.3846 0.2739 0.0000
vt 0.8276 0.8557 0.0000
vt 0.8331 0.8413 0.0000
vt 0.7214 0.8166 0.0000
vt 0.3696 0.1612 0.0000
vt 0.3696 0.0586 0.0000
vt 0.7748 0.2649 0.0000
vt 0.8029 0.8969 0.0000
vt 0.8120 0.8845 0.0000
vt 0.7109 0.8310 0.0000
vt 0.7681 0.9300 0.0000
vt 0.7802 0.9205 0.0000
vt 0.6970 0.8420 0.0000
vt 0.3696 0.2739 0.0000
vt 0.7258 0.9527 0.0000
vt 0.7399 0.9467 0.0000
vt 0.6806 0.8489 0.0000
vt 0.6789 0.9633 0.0000
vt 0.6941 0.9613 0.0000
vt 0.6630 0.8512 0.0000
vt 0.6309 0.9610 0.0000
vt 0.6461 0.9631 0.0000
vt 0.6072 0.7823 0.0000
vt 0.6085 0.7973 0.0000
vt 0.6137 0.8114 0.0000
vt 0.6225 0.8237 0.0000
vt 0.6343 0.8331 0.0000
vt 0.6481 0.8391 0.0000
vt 0.6630 0.8412 0.0000
vt 0.6780 0.8393 0.0000
vt 0.6919 0.8334 0.0000
vt 0.7037 0.8240 0.0000
vt 0.7126 0.8119 0.0000
vt 0.7180 0.7978 0.0000
vt 0.7194 0.7828 0.0000
vt 0.8379 0.3855 0.0000
vt 0.8133 0.4009 0.0000
vt 0.8435 0.4603 0.0000
vt 0.8724 0.4571 0.0000
vt 0.7894 0.4195 0.0000
vt 0.8140 0.4667 0.0000
vt 0.2600 0.3857 0.0000
vt 0.2449 0.3591 0.0000
vt 0.3111 0.3448 0.0000
vt 0.3131 0.3753 0.0000
vt 0.2317 0.3360 0.0000
vt 0.3092 0.3183 0.0000
vt 0.7758 0.3360 0.0000
vt 0.7603 0.3605 0.0000
vt 0.7468 0.3876 0.0000
vt 0.2166 0.4181 0.0000
vt 0.1915 0.4006 0.0000
vt 0.1696 0.3855 0.0000
vt 0.6983 0.3183 0.0000
vt 0.6950 0.3471 0.0000
vt 0.6946 0.3773 0.0000
vt 0.1916 0.4660 0.0000
vt 0.1614 0.4613 0.0000
vt 0.1351 0.4571 0.0000
vt 0.6208 0.3360 0.0000
vt 0.6303 0.3634 0.0000
vt 0.6431 0.3908 0.0000
vt 0.1899 0.5201 0.0000
vt 0.1606 0.5289 0.0000
vt 0.1351 0.5366 0.0000
vt 0.5586 0.3855 0.0000
vt 0.5791 0.4061 0.0000
vt 0.6025 0.4252 0.0000
vt 0.2118 0.5696 0.0000
vt 0.1892 0.5902 0.0000
vt 0.1696 0.6082 0.0000
vt 0.5241 0.4571 0.0000
vt 0.5515 0.4668 0.0000
vt 0.5809 0.4739 0.0000
vt 0.2530 0.6047 0.0000
vt 0.2416 0.6331 0.0000
vt 0.2317 0.6578 0.0000
vt 0.5241 0.5366 0.0000
vt 0.5530 0.5334 0.0000
vt 0.5825 0.5271 0.0000
vt 0.3054 0.6184 0.0000
vt 0.3074 0.6489 0.0000
vt 0.3092 0.6755 0.0000
vt 0.5586 0.6082 0.0000
vt 0.5832 0.5928 0.0000
vt 0.6071 0.5743 0.0000
vt 0.3585 0.6081 0.0000
vt 0.3736 0.6347 0.0000
vt 0.3867 0.6578 0.0000
vt 0.6208 0.6578 0.0000
vt 0.6363 0.6332 0.0000
vt 0.6497 0.6062 0.0000
vt 0.4018 0.5757 0.0000
vt 0.4270 0.5931 0.0000
vt 0.4489 0.6082 0.0000
vt 0.6983 0.6755 0.0000
vt 0.7016 0.6466 0.0000
vt 0.7019 0.6164 0.0000
vt 0.4269 0.5277 0.0000
vt 0.4571 0.5325 0.0000
vt 0.4834 0.5366 0.0000
vt 0.7758 0.6578 0.0000
vt 0.7662 0.6304 0.0000
vt 0.7534 0.6030 0.0000
vt 0.4286 0.4736 0.0000
vt 0.4579 0.4648 0.0000
vt 0.4834 0.4571 0.0000
vt 0.8379 0.6082 0.0000
vt 0.8174 0.5877 0.0000
vt 0.7940 0.5685 0.0000
vt 0.4067 0.4241 0.0000
vt 0.4293 0.4035 0.0000
vt 0.4489 0.3855 0.0000
vt 0.8724 0.5366 0.0000
vt 0.8450 0.5270 0.0000
vt 0.8156 0.5199 0.0000
vt 0.3655 0.3890 0.0000
vt 0.3769 0.3607 0.0000
vt 0.3867 0.3360 0.0000
vt 0.3092 0.4969 0.0000
vt 0.6983 0.4969 0.0000
# 214 texture coords

o ovini
g ovini
usemtl 02___Default
s off
f 1/1/1 2/2/1 3/3/1 4/4/1 
f 5/5/2 6/6/2 7/7/2 
f 5/8/3 7/9/3 2/2/3 1/1/3 
f 2/2/4 8/10/4 9/11/4 3/3/4 
f 7/7/5 6/6/5 10/12/5 
f 7/9/6 10/13/6 8/10/6 2/2/6 
f 8/10/7 11/14/7 12/15/7 9/11/7 
f 10/12/8 6/6/8 13/16/8 
f 10/13/9 13/17/9 11/14/9 8/10/9 
f 13/16/10 6/6/10 14/18/10 
f 13/19/11 14/20/11 15/21/11 11/22/11 
f 11/22/12 15/21/12 16/23/12 12/24/12 
f 17/25/13 18/26/13 19/27/13 20/28/13 
f 18/26/14 21/29/14 22/30/14 19/27/14 
f 14/20/15 23/31/15 24/32/15 15/21/15 
f 21/29/16 25/33/16 26/34/16 22/30/16 
f 15/21/17 24/32/17 27/35/17 16/23/17 
f 14/18/18 6/6/18 23/36/18 
f 25/33/19 28/37/19 29/38/19 26/34/19 
f 28/37/20 30/39/20 31/40/20 29/38/20 
f 23/31/21 32/41/21 33/42/21 24/32/21 
f 30/39/22 34/43/22 35/44/22 31/40/22 
f 24/32/23 33/42/23 36/45/23 27/35/23 
f 23/36/24 6/6/24 32/46/24 
f 34/43/25 37/47/25 38/48/25 35/44/25 
f 37/49/26 39/50/26 40/51/26 38/52/26 
f 32/41/27 41/53/27 42/54/27 33/42/27 
f 39/50/28 43/55/28 44/56/28 40/51/28 
f 33/42/29 42/54/29 45/57/29 36/45/29 
f 32/46/30 6/6/30 41/58/30 
f 43/55/31 46/59/31 47/60/31 44/56/31 
f 41/53/32 48/61/32 49/62/32 42/54/32 
f 46/59/33 50/63/33 51/64/33 47/60/33 
f 42/54/34 49/62/34 52/65/34 45/57/34 
f 41/58/35 6/6/35 48/66/35 
f 50/63/36 17/25/36 20/28/36 51/64/36 
f 48/61/37 53/67/37 54/68/37 49/62/37 
f 55/69/38 56/70/38 57/71/38 58/72/38 
f 49/62/39 54/68/39 59/73/39 52/65/39 
f 48/66/40 6/6/40 53/74/40 
f 60/75/41 55/76/41 58/72/41 61/77/41 
f 62/78/42 60/79/42 61/77/42 63/80/42 
f 64/81/43 62/82/43 63/80/43 65/83/43 
f 54/68/44 66/84/44 67/85/44 59/73/44 
f 53/74/45 6/6/45 68/86/45 
f 69/87/46 64/88/46 65/83/46 70/89/46 
f 71/90/47 69/91/47 70/92/47 72/93/47 
f 53/67/48 68/94/48 66/84/48 54/68/48 
f 73/95/49 71/96/49 72/93/49 74/97/49 
f 66/84/50 75/98/50 76/99/50 67/85/50 
f 68/86/51 6/6/51 77/100/51 
f 78/101/52 73/102/52 74/97/52 79/103/52 
f 80/104/53 78/105/53 79/103/53 81/106/53 
f 68/94/54 77/107/54 75/98/54 66/84/54 
f 82/108/55 80/109/55 81/106/55 83/110/55 
f 75/98/56 1/1/56 4/4/56 76/99/56 
f 77/100/57 6/6/57 5/5/57 
f 84/111/58 82/112/58 83/110/58 85/113/58 
f 56/114/59 84/115/59 85/113/59 57/71/59 
f 77/107/60 5/8/60 1/1/60 75/98/60 
f 65/83/61 70/89/61 38/116/61 
f 38/116/61 40/117/61 65/83/61 
f 63/80/62 65/83/62 40/117/62 
f 40/117/62 44/118/62 63/80/62 
f 61/77/63 63/80/63 44/118/63 
f 44/118/63 47/119/63 61/77/63 
f 58/72/64 61/77/64 47/119/64 
f 47/119/64 51/120/64 58/72/64 
f 57/71/65 58/72/65 51/120/65 
f 51/120/65 20/121/65 57/71/65 
f 85/113/66 57/71/66 20/121/66 
f 20/121/66 19/122/66 85/113/66 
f 83/110/67 85/113/67 19/122/67 
f 19/122/67 22/123/67 83/110/67 
f 81/106/68 83/110/68 22/123/68 
f 22/123/68 26/124/68 81/106/68 
f 79/103/69 81/106/69 26/124/69 
f 26/124/69 29/125/69 79/103/69 
f 74/97/70 79/103/70 29/125/70 
f 29/125/70 31/126/70 74/97/70 
f 72/93/71 74/97/71 31/126/71 
f 31/126/71 35/127/71 72/93/71 
f 70/92/72 72/93/72 35/127/72 
f 35/127/72 38/128/72 70/92/72 
f 86/129/73 87/130/73 88/131/73 89/132/73 
f 87/130/74 90/133/74 91/134/74 88/131/74 
f 92/135/75 93/136/75 94/137/75 95/138/75 
f 93/136/76 86/139/76 89/140/76 94/137/76 
f 96/141/77 97/142/77 87/130/77 86/129/77 
f 97/142/78 98/143/78 90/133/78 87/130/78 
f 99/144/79 100/145/79 93/136/79 92/135/79 
f 100/145/80 96/146/80 86/139/80 93/136/80 
f 101/147/81 102/148/81 97/142/81 96/141/81 
f 102/148/82 103/149/82 98/143/82 97/142/82 
f 104/150/83 105/151/83 100/145/83 99/144/83 
f 105/151/84 101/152/84 96/146/84 100/145/84 
f 106/153/85 107/154/85 102/148/85 101/147/85 
f 107/154/86 108/155/86 103/149/86 102/148/86 
f 109/156/87 110/157/87 105/151/87 104/150/87 
f 110/157/88 106/158/88 101/152/88 105/151/88 
f 111/159/89 112/160/89 107/154/89 106/153/89 
f 112/160/90 113/161/90 108/155/90 107/154/90 
f 114/162/91 115/163/91 110/157/91 109/156/91 
f 115/163/92 111/164/92 106/158/92 110/157/92 
f 116/165/93 117/166/93 112/160/93 111/159/93 
f 117/166/94 118/167/94 113/161/94 112/160/94 
f 119/168/95 120/169/95 115/163/95 114/162/95 
f 120/169/96 116/170/96 111/164/96 115/163/96 
f 121/171/97 122/172/97 117/166/97 116/165/97 
f 122/172/98 123/173/98 118/167/98 117/166/98 
f 124/174/99 125/175/99 120/169/99 119/168/99 
f 125/175/100 121/176/100 116/170/100 120/169/100 
f 126/177/101 127/178/101 122/172/101 121/171/101 
f 127/178/102 128/179/102 123/173/102 122/172/102 
f 129/180/103 130/181/103 125/175/103 124/174/103 
f 130/181/104 126/182/104 121/176/104 125/175/104 
f 131/183/105 132/184/105 127/178/105 126/177/105 
f 132/184/106 133/185/106 128/179/106 127/178/106 
f 134/186/107 135/187/107 130/181/107 129/180/107 
f 135/187/108 131/188/108 126/182/108 130/181/108 
f 136/189/109 137/190/109 132/184/109 131/183/109 
f 137/190/110 138/191/110 133/185/110 132/184/110 
f 139/192/111 140/193/111 135/187/111 134/186/111 
f 140/193/112 136/194/112 131/188/112 135/187/112 
f 141/195/113 142/196/113 137/190/113 136/189/113 
f 142/196/114 143/197/114 138/191/114 137/190/114 
f 144/198/115 145/199/115 140/193/115 139/192/115 
f 145/199/116 141/200/116 136/194/116 140/193/116 
f 146/201/117 147/202/117 142/196/117 141/195/117 
f 147/202/118 148/203/118 143/197/118 142/196/118 
f 149/204/119 150/205/119 145/199/119 144/198/119 
f 150/205/120 146/206/120 141/200/120 145/199/120 
f 151/207/121 152/208/121 147/202/121 146/201/121 
f 152/208/122 153/209/122 148/203/122 147/202/122 
f 154/210/123 155/211/123 150/205/123 149/204/123 
f 155/211/124 151/212/124 146/206/124 150/205/124 
f 89/132/125 88/131/125 152/208/125 151/207/125 
f 88/131/126 91/134/126 153/209/126 152/208/126 
f 95/138/127 154/210/127 156/213/127 
f 95/138/128 94/137/128 155/211/128 154/210/128 
f 94/137/129 89/140/129 151/212/129 155/211/129 
f 91/134/127 153/209/127 157/214/127 
f 153/209/127 148/203/127 157/214/127 
f 148/203/127 143/197/127 157/214/127 
f 143/197/127 138/191/127 157/214/127 
f 138/191/127 133/185/127 157/214/127 
f 133/185/127 128/179/127 157/214/127 
f 128/179/127 123/173/127 157/214/127 
f 123/173/127 118/167/127 157/214/127 
f 118/167/127 113/161/127 157/214/127 
f 113/161/127 108/155/127 157/214/127 
f 108/155/127 103/149/127 157/214/127 
f 103/149/127 98/143/127 157/214/127 
f 98/143/127 90/133/127 157/214/127 
f 90/133/127 91/134/127 157/214/127 
f 154/210/127 149/204/127 156/213/127 
f 149/204/127 144/198/127 156/213/127 
f 144/198/127 139/192/127 156/213/127 
f 139/192/127 134/186/127 156/213/127 
f 134/186/127 129/180/127 156/213/127 
f 129/180/127 124/174/127 156/213/127 
f 124/174/127 119/168/127 156/213/127 
f 119/168/127 114/162/127 156/213/127 
f 114/162/127 109/156/127 156/213/127 
f 109/156/127 104/150/127 156/213/127 
f 104/150/127 99/144/127 156/213/127 
f 99/144/127 92/135/127 156/213/127 
f 92/135/127 95/138/127 156/213/127 
# 104 polygons - 64 triangles

