# 3ds Max Wavefront OBJ Exporter v0.99 - (c)2007 guruware
# File Created: 12.04.2025 18:59:55

mtllib pared.mtl

#
# object Parede
#

v  5.2578 4.6426 26.6905
v  5.2782 0.2290 26.6905
v  5.2782 0.2290 -26.7413
v  5.2578 4.6426 -26.7413
v  5.0876 41.4821 26.6905
v  5.1136 35.8735 26.6905
v  5.1136 35.8735 -26.7413
v  5.0876 41.4821 -26.7413
v  2.7982 33.4763 26.6905
v  2.7982 33.4763 -26.7413
v  2.8070 31.5786 26.6905
v  2.8070 31.5786 -26.7413
v  5.2383 8.8740 26.6905
v  5.2464 7.1192 26.6905
v  5.2464 7.1192 -26.7413
v  5.2383 8.8740 -26.7413
v  2.9025 10.8979 26.6905
v  2.9025 10.8979 -26.7413
v  6.7075 7.1260 26.6905
v  6.7190 4.6493 26.6905
v  6.7190 4.6493 -26.7413
v  6.7075 7.1260 -26.7413
v  -6.9605 4.5905 -26.7400
v  -6.9432 0.1769 -26.7399
v  -6.7614 0.1776 26.6916
v  -6.7786 4.5913 26.6916
v  -7.1044 41.4301 -26.7400
v  -7.0825 35.8215 -26.7400
v  -6.9007 35.8223 26.6915
v  -6.9226 41.4309 26.6915
v  -4.7468 33.4441 -26.7475
v  -4.5650 33.4449 26.6840
v  -4.7394 31.5464 -26.7475
v  -4.5576 31.5472 26.6840
v  -6.9770 8.8219 -26.7400
v  -6.9702 7.0672 -26.7400
v  -6.7883 7.0679 26.6916
v  -6.7952 8.8227 26.6916
v  -4.6586 10.8657 -26.7474
v  -4.4768 10.8664 26.6841
v  -8.4313 7.0615 -26.7353
v  -8.4216 4.5848 -26.7353
v  -8.2398 4.5856 26.6963
v  -8.2495 7.0622 26.6963
# 44 vertices

vn 1.0000 0.0046 -0.0000
vn 0.7193 -0.6947 -0.0000
vn 0.6548 0.7558 0.0000
vn -0.0046 1.0000 0.0000
vn 0.0046 -1.0000 -0.0000
vn -1.0000 -0.0039 0.0034
vn -0.7133 -0.7008 0.0024
vn -0.6613 0.7502 0.0022
vn -0.0039 1.0000 -0.0000
vn 0.0039 -1.0000 0.0000
vn -0.0043 1.0000 -0.0000
# 11 vertex normals

vt 0.7106 0.4657 0.0000
vt 0.6721 0.4657 0.0000
vt 0.6721 0.0002 0.0000
vt 0.7106 0.0002 0.0000
vt 0.1959 0.9624 0.0000
vt 0.1470 0.9625 0.0000
vt 0.1465 0.4969 0.0000
vt 0.1954 0.4969 0.0000
vt 0.1180 0.9625 0.0000
vt 0.1175 0.4970 0.0000
vt 0.1015 0.9625 0.0000
vt 0.1009 0.4970 0.0000
vt 0.7729 0.4657 0.0000
vt 0.7576 0.4657 0.0000
vt 0.7576 0.0002 0.0000
vt 0.7729 0.0002 0.0000
vt 0.7998 0.4657 0.0000
vt 0.7998 0.0002 0.0000
vt 0.7449 0.4657 0.0000
vt 0.7233 0.4657 0.0000
vt 0.7233 0.0002 0.0000
vt 0.7449 0.0002 0.0000
vt 0.3717 0.0002 0.0000
vt 0.4102 0.0002 0.0000
vt 0.4102 0.4657 0.0000
vt 0.3717 0.4657 0.0000
vt 0.3016 0.4968 0.0000
vt 0.3505 0.4969 0.0000
vt 0.3494 0.9624 0.0000
vt 0.3005 0.9623 0.0000
vt 0.3795 0.4970 0.0000
vt 0.3784 0.9625 0.0000
vt 0.3960 0.4970 0.0000
vt 0.3950 0.9625 0.0000
vt 0.3094 0.0002 0.0000
vt 0.3247 0.0002 0.0000
vt 0.3247 0.4657 0.0000
vt 0.3094 0.4657 0.0000
vt 0.2824 0.0002 0.0000
vt 0.2824 0.4657 0.0000
vt 0.6826 0.9751 0.0000
vt 0.5024 0.9751 0.0000
vt 0.5024 0.5095 0.0000
vt 0.6826 0.5095 0.0000
vt 0.3374 0.0002 0.0000
vt 0.3590 0.0002 0.0000
vt 0.3590 0.4657 0.0000
vt 0.3374 0.4657 0.0000
vt 0.9741 0.9795 0.0000
vt 0.7939 0.9795 0.0000
vt 0.7939 0.5140 0.0000
vt 0.9741 0.5140 0.0000
# 52 texture coords

o Parede
g Parede
usemtl 02___Default
s off
f 1/1/1 2/2/1 3/3/1 4/4/1 
f 5/5/1 6/6/1 7/7/1 8/8/1 
f 6/6/2 9/9/2 10/10/2 7/7/2 
f 9/9/1 11/11/1 12/12/1 10/10/1 
f 13/13/1 14/14/1 15/15/1 16/16/1 
f 17/17/3 13/13/3 16/16/3 18/18/3 
f 19/19/1 20/20/1 21/21/1 22/22/1 
f 15/15/4 14/14/4 19/19/4 22/22/4 
f 1/1/5 4/4/5 21/21/5 20/20/5 
f 23/23/6 24/24/6 25/25/6 26/26/6 
f 27/27/6 28/28/6 29/29/6 30/30/6 
f 28/28/7 31/31/7 32/32/7 29/29/7 
f 31/31/6 33/33/6 34/34/6 32/32/6 
f 35/35/6 36/36/6 37/37/6 38/38/6 
f 39/39/8 35/35/8 38/38/8 40/40/8 
f 33/41/6 39/42/6 40/43/6 34/44/6 
f 41/45/6 42/46/6 43/47/6 44/48/6 
f 37/37/9 36/36/9 41/45/9 44/48/9 
f 23/23/10 26/26/10 43/47/10 42/46/10 
f 27/27/11 30/30/11 5/5/11 8/8/11 
f 11/49/1 17/50/1 18/51/1 12/52/1 
# 21 polygons

