# 3ds Max Wavefront OBJ Exporter v0.99 - (c)2007 guruware
# File Created: 26.04.2025 21:14:02

mtllib puerta_parteAlta.mtl

#
# object Object001
#

v  185.4643 1365.4000 54.1596
v  189.6461 1372.4612 54.1596
v  110.4249 1392.7281 54.1596
v  108.2787 1385.1241 54.1596
v  26.4365 1399.7023 54.1596
v  26.4365 1391.9141 54.1596
v  26.4365 1386.0715 52.1626
v  106.6788 1379.4250 52.1626
v  182.3295 1360.1053 52.1626
v  218.9191 1421.8844 54.1596
v  223.1010 1428.9456 54.1596
v  127.5491 1453.5547 54.1596
v  125.4094 1445.9507 54.1596
v  26.4365 1462.0240 54.1596
v  26.4365 1454.2357 54.1596
v  26.4365 1446.4423 54.1596
v  123.2697 1438.3468 54.1596
v  214.7373 1414.8232 54.1596
v  106.1390 1377.5203 -25.6128
v  181.2824 1358.3440 -25.6128
v  181.2824 1358.3440 -17.6350
v  106.1390 1377.5203 -17.6350
v  181.2824 1358.3440 -9.6573
v  106.1390 1377.5203 -9.6573
v  26.4365 1384.1206 -9.6573
v  26.4365 1384.1206 -17.6350
v  26.4365 1384.1206 -25.6128
v  106.1390 1377.5203 38.2041
v  181.2824 1358.3440 38.2041
v  181.2824 1358.3440 46.1819
v  106.1390 1377.5203 46.1819
v  26.4365 1384.1206 46.1819
v  26.4365 1384.1206 38.2041
v  343.6400 1426.0575 -57.5187
v  248.1856 1471.3075 -57.5187
v  248.1856 1471.3075 -49.5409
v  343.6400 1426.0575 -49.5409
v  248.1856 1471.3075 -41.5632
v  343.6400 1426.0575 -41.5632
v  423.6026 1365.9480 -41.5632
v  423.6026 1365.9480 -49.5409
v  423.6026 1365.9480 -57.5187
v  343.6400 1426.0575 -25.6128
v  248.1856 1471.3075 -25.6128
v  248.1856 1471.3075 -17.6350
v  343.6400 1426.0575 -17.6350
v  248.1856 1471.3075 -9.6573
v  343.6400 1426.0575 -9.6573
v  423.6026 1365.9480 -9.6573
v  423.6026 1365.9480 -17.6350
v  423.6026 1365.9480 -25.6128
v  106.1390 1377.5203 6.2982
v  181.2824 1358.3440 6.2982
v  181.2824 1358.3440 14.2709
v  106.1390 1377.5203 14.2709
v  181.2824 1358.3440 22.2486
v  106.1390 1377.5203 22.2486
v  26.4365 1384.1206 22.2486
v  26.4365 1384.1206 14.2709
v  26.4365 1384.1206 6.2982
v  344.5115 1235.9791 6.2982
v  372.0285 1065.7581 6.2982
v  372.0285 1065.7581 14.2760
v  344.5115 1235.9791 14.2760
v  372.0285 1065.7581 22.2486
v  344.5115 1235.9791 22.2486
v  302.3287 1285.8325 22.2486
v  302.3287 1285.8325 14.2709
v  302.3287 1285.8325 6.2982
v  344.5115 1235.9791 38.2041
v  372.0285 1065.7581 38.2041
v  372.0285 1065.7581 46.1819
v  344.5115 1235.9791 46.1819
v  374.4219 1066.3060 52.1626
v  346.7097 1236.8804 52.1626
v  304.2213 1287.0818 52.1626
v  302.3287 1285.8325 46.1819
v  302.3287 1285.8325 38.2041
v  106.1390 1377.5203 -57.5187
v  181.2824 1358.3440 -57.5187
v  181.2824 1358.3440 -49.5409
v  106.1390 1377.5203 -49.5409
v  181.2824 1358.3440 -41.5632
v  106.1390 1377.5203 -41.5632
v  26.4365 1384.1206 -41.5632
v  26.4365 1384.1206 -49.5409
v  26.4365 1384.1206 -57.5187
v  344.5115 1235.9791 -57.5187
v  372.0285 1065.7581 -57.5187
v  372.0285 1065.7581 -49.5409
v  344.5115 1235.9791 -49.5409
v  372.0285 1065.7581 -41.5632
v  344.5115 1235.9791 -41.5632
v  302.3287 1285.8325 -41.5632
v  302.3287 1285.8325 -49.5409
v  302.3287 1285.8325 -57.5187
v  344.5115 1235.9791 -25.6128
v  372.0285 1065.7581 -25.6128
v  372.0285 1065.7581 -17.6350
v  344.5115 1235.9791 -17.6350
v  372.0285 1065.7581 -9.6573
v  344.5115 1235.9791 -9.6573
v  302.3287 1285.8325 -9.6573
v  302.3287 1285.8325 -17.6350
v  302.3287 1285.8325 -25.6128
v  218.9191 1421.8844 -73.4742
v  223.1010 1428.9456 -73.4742
v  307.5121 1388.9851 -73.4742
v  301.4897 1382.8046 -73.4742
v  378.1225 1335.9059 -73.4742
v  370.5457 1330.8979 -73.4742
v  362.9624 1325.8901 -73.4742
v  295.4673 1376.6293 -73.4742
v  214.7373 1414.8232 -73.4742
v  235.6401 1450.1240 -73.4742
v  239.8219 1457.1852 -73.4742
v  331.6017 1413.6967 -73.4742
v  325.5793 1407.5214 -73.4742
v  408.4426 1355.9373 -73.4742
v  400.8593 1350.9294 -73.4742
v  393.2825 1345.9216 -73.4742
v  319.5569 1401.3408 -73.4742
v  231.4582 1443.0679 -73.4742
v  423.4790 1268.3458 54.1596
v  458.2151 1085.4106 54.1596
v  467.7950 1087.5970 54.1596
v  432.2525 1271.9404 54.1596
v  378.1225 1335.9059 54.1596
v  370.5457 1330.8979 54.1596
v  362.9624 1325.8901 54.1596
v  414.7056 1264.7462 54.1596
v  448.6418 1083.2292 54.1596
v  235.6401 1450.1240 54.1596
v  239.8219 1457.1852 54.1596
v  136.1144 1483.9705 54.1596
v  133.9747 1476.3666 54.1596
v  26.4365 1493.1875 54.1596
v  26.4365 1485.3940 54.1596
v  26.4365 1477.6057 54.1596
v  131.8350 1468.7627 54.1596
v  231.4582 1443.0679 54.1596
v  353.2849 1239.5737 54.1596
v  381.6084 1067.9446 54.1596
v  391.1818 1070.1259 54.1596
v  362.0584 1243.1735 54.1596
v  317.4887 1295.8481 54.1596
v  309.9055 1290.8403 54.1596
v  388.3852 1253.9624 54.1596
v  419.9085 1076.6802 54.1596
v  429.4884 1078.8616 54.1596
v  397.1587 1257.5570 54.1596
v  347.8023 1315.8744 54.1596
v  340.2256 1310.8666 54.1596
v  332.6423 1305.8639 54.1596
v  379.6118 1250.3627 54.1596
v  410.3351 1074.4937 54.1596
v  202.1917 1393.6448 54.1596
v  206.3736 1400.7059 54.1596
v  118.9837 1423.1439 54.1596
v  116.8440 1415.5400 54.1596
v  26.4365 1430.8657 54.1596
v  26.4365 1423.0723 54.1596
v  26.4365 1415.2841 54.1596
v  114.7043 1407.9362 54.1596
v  198.0098 1386.5836 54.1596
v  185.4643 1365.4000 -73.4742
v  189.6461 1372.4612 -73.4742
v  259.3394 1339.5569 -73.4742
v  253.3170 1333.3763 -73.4742
v  317.4887 1295.8481 -73.4742
v  309.9055 1290.8403 -73.4742
v  304.2213 1287.0818 -71.4772
v  248.8035 1328.7423 -71.4772
v  182.3295 1360.1053 -71.4772
v  202.1917 1393.6448 -73.4742
v  206.3736 1400.7059 -73.4742
v  283.4290 1364.2684 -73.4742
v  277.4066 1358.0930 -73.4742
v  347.8023 1315.8744 -73.4742
v  340.2256 1310.8666 -73.4742
v  332.6423 1305.8639 -73.4742
v  271.3842 1351.9126 -73.4742
v  198.0098 1386.5836 -73.4742
v  343.6400 1426.0575 6.2982
v  248.1856 1471.3075 6.2982
v  248.1856 1471.3075 14.2709
v  343.6400 1426.0575 14.2709
v  248.1856 1471.3075 22.2486
v  343.6400 1426.0575 22.2486
v  423.6026 1365.9480 22.2486
v  423.6026 1365.9480 14.2709
v  423.6026 1365.9480 6.2982
v  248.1856 1471.3075 30.2264
v  343.6400 1426.0575 30.2264
v  248.1856 1471.3075 38.2041
v  343.6400 1426.0575 38.2041
v  423.6026 1365.9480 38.2041
v  423.6026 1365.9480 30.2264
v  140.3938 1499.1785 22.2486
v  26.4365 1508.7640 22.2486
v  26.4365 1508.7640 30.2264
v  140.3938 1499.1785 30.2264
v  26.4365 1508.7640 38.2041
v  140.3938 1499.1785 38.2041
v  26.4365 1508.7640 46.1819
v  140.3938 1499.1785 46.1819
v  26.4365 1506.8182 52.1626
v  139.8605 1497.2736 52.1626
v  247.1451 1469.5409 52.1626
v  248.1856 1471.3075 46.1819
v  248.1856 1471.3075 -1.6795
v  343.6400 1426.0575 -1.6795
v  423.6026 1365.9480 -1.6795
v  140.3938 1499.1785 -9.6573
v  26.4365 1508.7640 -9.6573
v  26.4365 1508.7640 -1.6795
v  140.3938 1499.1785 -1.6795
v  26.4365 1508.7640 6.2982
v  140.3938 1499.1785 6.2982
v  26.4365 1508.7640 14.2709
v  140.3938 1499.1785 14.2709
v  484.8997 1293.5183 -9.6573
v  484.8997 1293.5183 -1.6795
v  484.8997 1293.5183 6.2982
v  525.2550 1100.6953 6.2982
v  525.2550 1100.6953 -1.6795
v  525.2550 1100.6953 -9.6573
v  484.8997 1293.5183 14.2709
v  484.8997 1293.5183 22.2486
v  525.2550 1100.6953 22.2486
v  525.2550 1100.6953 14.2760
v  397.1587 1257.5570 -73.4742
v  388.3852 1253.9624 -73.4742
v  429.4884 1078.8616 -73.4742
v  419.9085 1076.6802 -73.4742
v  410.3351 1074.4937 -73.4742
v  379.6118 1250.3627 -73.4742
v  355.3856 1320.8823 -73.4742
v  414.7056 1264.7462 -73.4742
v  405.9321 1261.1516 -73.4742
v  448.6418 1083.2292 -73.4742
v  439.0618 1081.0428 -73.4742
v  26.4365 1423.0723 -73.4742
v  26.4365 1430.8657 -73.4742
v  118.9837 1423.1439 -73.4742
v  116.8440 1415.5400 -73.4742
v  114.7043 1407.9362 -73.4742
v  26.4365 1415.2841 -73.4742
v  26.4365 1438.6541 -73.4742
v  26.4365 1446.4423 -73.4742
v  123.2697 1438.3468 -73.4742
v  121.1300 1430.7479 -73.4742
v  210.5554 1407.7620 -73.4742
v  289.4514 1370.4489 -73.4742
v  26.4365 1391.9141 -73.4742
v  26.4365 1399.7023 -73.4742
v  110.4249 1392.7281 -73.4742
v  108.2787 1385.1241 -73.4742
v  106.6788 1379.4250 -71.4772
v  26.4365 1386.0715 -71.4772
v  26.4365 1407.4906 -73.4742
v  112.5646 1400.3322 -73.4742
v  193.8280 1379.5223 -73.4742
v  265.3618 1345.7322 -73.4742
v  325.0655 1300.8561 -73.4742
v  283.4290 1364.2684 54.1596
v  277.4066 1358.0930 54.1596
v  271.3842 1351.9126 54.1596
v  355.3856 1320.8823 54.1596
v  295.4673 1376.6293 54.1596
v  289.4514 1370.4489 54.1596
v  210.5554 1407.7620 54.1596
v  121.1300 1430.7479 54.1596
v  26.4365 1438.6541 54.1596
v  405.9321 1261.1516 54.1596
v  439.0618 1081.0428 54.1596
v  370.8383 1246.7681 54.1596
v  400.7552 1072.3124 54.1596
v  325.0655 1300.8561 54.1596
v  400.8593 1350.9294 54.1596
v  408.4426 1355.9373 54.1596
v  331.6017 1413.6967 54.1596
v  325.5793 1407.5214 54.1596
v  319.5569 1401.3408 54.1596
v  393.2825 1345.9216 54.1596
v  416.0193 1360.9452 54.1596
v  421.7035 1364.6985 52.1626
v  342.1377 1424.5112 52.1626
v  337.6241 1419.8771 54.1596
v  244.0038 1464.2463 54.1596
v  138.2541 1491.5745 54.1596
v  26.4365 1500.9757 54.1596
v  441.0259 1275.5350 54.1596
v  477.3684 1089.7784 54.1596
v  486.9483 1091.9648 54.1596
v  449.7994 1279.1349 54.1596
v  385.6992 1340.9137 54.1596
v  467.3463 1286.3240 -73.4742
v  458.5728 1282.7294 -73.4742
v  506.1017 1096.3326 -73.4742
v  496.5217 1094.1462 -73.4742
v  486.9483 1091.9648 -73.4742
v  449.7994 1279.1349 -73.4742
v  416.0193 1360.9452 -73.4742
v  421.7035 1364.6985 -71.4772
v  482.7014 1292.6172 -71.4772
v  476.1262 1289.9186 -73.4742
v  522.8616 1100.1525 -71.4772
v  515.6751 1098.5139 -73.4742
v  26.4365 1485.3940 -73.4742
v  26.4365 1493.1875 -73.4742
v  136.1144 1483.9705 -73.4742
v  133.9747 1476.3666 -73.4742
v  131.8350 1468.7627 -73.4742
v  26.4365 1477.6057 -73.4742
v  26.4365 1500.9757 -73.4742
v  26.4365 1506.8182 -71.4772
v  139.8605 1497.2736 -71.4772
v  138.2541 1491.5745 -73.4742
v  247.1451 1469.5409 -71.4772
v  244.0038 1464.2463 -73.4742
v  342.1377 1424.5112 -71.4772
v  337.6241 1419.8771 -73.4742
v  26.4365 1454.2357 -73.4742
v  26.4365 1462.0240 -73.4742
v  127.5491 1453.5547 -73.4742
v  125.4094 1445.9507 -73.4742
v  26.4365 1469.8123 -73.4742
v  129.6888 1461.1587 -73.4742
v  227.2829 1436.0067 -73.4742
v  313.5345 1395.1604 -73.4742
v  385.6992 1340.9137 -73.4742
v  372.0285 1065.7581 -33.5905
v  344.5115 1235.9791 -33.5905
v  302.3287 1285.8325 -33.5905
v  344.5115 1235.9791 -65.4964
v  346.7097 1236.8804 -71.4772
v  374.4219 1066.3060 -71.4772
v  372.0285 1065.7581 -65.4964
v  302.3287 1285.8325 -65.4964
v  181.2824 1358.3440 -65.4964
v  106.1390 1377.5203 -65.4964
v  26.4365 1384.1206 -65.4964
v  247.2946 1327.1958 -65.4964
v  247.2946 1327.1958 -57.5187
v  247.2946 1327.1958 -49.5409
v  247.2946 1327.1958 -41.5632
v  372.0285 1065.7581 -1.6795
v  344.5115 1235.9791 -1.6795
v  302.3287 1285.8325 -1.6795
v  181.2824 1358.3440 -1.6795
v  106.1390 1377.5203 -1.6795
v  26.4365 1384.1206 -1.6795
v  247.2946 1327.1958 -9.6573
v  247.2946 1327.1958 -1.6795
v  247.2946 1327.1958 6.2982
v  247.2946 1327.1958 14.2709
v  247.2946 1327.1958 22.2486
v  248.1856 1471.3075 -33.5905
v  343.6400 1426.0575 -33.5905
v  423.6026 1365.9480 -33.5905
v  140.3938 1499.1785 -41.5632
v  26.4365 1508.7640 -41.5632
v  26.4365 1508.7640 -33.5905
v  140.3938 1499.1785 -33.5905
v  26.4365 1508.7640 -25.6128
v  140.3938 1499.1785 -25.6128
v  26.4365 1508.7640 -17.6350
v  140.3938 1499.1785 -17.6350
v  248.1856 1471.3075 -65.4964
v  343.6400 1426.0575 -65.4964
v  423.6026 1365.9480 -65.4964
v  26.4365 1508.7640 -65.4964
v  140.3938 1499.1785 -65.4964
v  26.4365 1508.7640 -57.5187
v  140.3938 1499.1785 -57.5187
v  26.4365 1508.7640 -49.5409
v  140.3938 1499.1785 -49.5409
v  484.8997 1293.5183 -65.4964
v  484.8997 1293.5183 -57.5187
v  525.2550 1100.6953 -57.5187
v  525.2550 1100.6953 -65.4964
v  484.8997 1293.5183 -49.5409
v  484.8997 1293.5183 -41.5632
v  525.2550 1100.6953 -41.5632
v  525.2550 1100.6953 -49.5409
v  484.8997 1293.5183 -33.5905
v  484.8997 1293.5183 -25.6128
v  525.2550 1100.6953 -25.6128
v  525.2550 1100.6953 -33.5905
v  484.8997 1293.5183 -17.6350
v  525.2550 1100.6953 -17.6350
v  181.2824 1358.3440 30.2264
v  106.1390 1377.5203 30.2264
v  26.4365 1384.1206 30.2264
v  302.3287 1285.8325 30.2264
v  247.2946 1327.1958 30.2264
v  247.2946 1327.1958 38.2041
v  247.2946 1327.1958 46.1819
v  248.8035 1328.7423 52.1626
v  247.2946 1327.1958 -33.5905
v  247.2946 1327.1958 -25.6128
v  181.2824 1358.3440 -33.5905
v  247.2946 1327.1958 -17.6350
v  432.2525 1271.9404 -73.4742
v  423.4790 1268.3458 -73.4742
v  467.7950 1087.5970 -73.4742
v  458.2151 1085.4106 -73.4742
v  441.0259 1275.5350 -73.4742
v  477.3684 1089.7784 -73.4742
v  307.5121 1388.9851 54.1596
v  301.4897 1382.8046 54.1596
v  313.5345 1395.1604 54.1596
v  227.2829 1436.0067 54.1596
v  129.6888 1461.1587 54.1596
v  26.4365 1469.8123 54.1596
v  259.3394 1339.5569 54.1596
v  253.3170 1333.3763 54.1596
v  265.3618 1345.7322 54.1596
v  193.8280 1379.5223 54.1596
v  112.5646 1400.3322 54.1596
v  26.4365 1407.4906 54.1596
v  362.0584 1243.1735 -73.4742
v  353.2849 1239.5737 -73.4742
v  391.1818 1070.1259 -73.4742
v  381.6084 1067.9446 -73.4742
v  370.8383 1246.7681 -73.4742
v  400.7552 1072.3124 -73.4742
v  484.8997 1293.5183 30.2264
v  484.8997 1293.5183 38.2041
v  525.2550 1100.6953 38.2041
v  525.2550 1100.6953 30.2264
v  458.5728 1282.7294 54.1596
v  496.5217 1094.1462 54.1596
v  506.1017 1096.3326 54.1596
v  467.3463 1286.3240 54.1596
v  343.6400 1426.0575 46.1819
v  423.6026 1365.9480 46.1819
v  476.1262 1289.9186 54.1596
v  515.6751 1098.5139 54.1596
v  522.8616 1100.1525 52.1626
v  482.7014 1292.6172 52.1626
v  372.0285 1065.7581 30.2264
v  344.5115 1235.9791 30.2264
v  106.1390 1377.5203 -33.5905
v  26.4365 1384.1206 -33.5905
v  484.8997 1293.5183 46.1819
v  525.2550 1100.6953 46.1819
v  -74.6760 1453.5547 54.1596
v  -170.2279 1428.9456 54.1596
v  -166.0461 1421.8844 54.1596
v  -72.5363 1445.9507 54.1596
v  -161.8642 1414.8232 54.1596
v  -70.3966 1438.3468 54.1596
v  -128.4093 1358.3440 -17.6350
v  -128.4093 1358.3440 -25.6128
v  -53.2659 1377.5203 -25.6128
v  -53.2659 1377.5203 -17.6350
v  -53.2659 1377.5203 -9.6573
v  -128.4093 1358.3440 -9.6573
v  -195.3125 1471.3075 -49.5409
v  -195.3125 1471.3075 -57.5187
v  -290.7734 1426.0575 -57.5187
v  -290.7734 1426.0575 -49.5409
v  -370.7295 1365.9480 -57.5187
v  -370.7295 1365.9480 -49.5409
v  -370.7295 1365.9480 -41.5632
v  -290.7734 1426.0575 -41.5632
v  -195.3125 1471.3075 -41.5632
v  -195.3125 1471.3075 -17.6350
v  -195.3125 1471.3075 -25.6128
v  -290.7734 1426.0575 -25.6128
v  -290.7734 1426.0575 -17.6350
v  -370.7295 1365.9480 -25.6128
v  -370.7295 1365.9480 -17.6350
v  -370.7295 1365.9480 -9.6573
v  -290.7734 1426.0575 -9.6573
v  -195.3125 1471.3075 -9.6573
v  -128.4093 1358.3440 14.2709
v  -128.4093 1358.3440 6.2982
v  -53.2659 1377.5203 6.2982
v  -53.2659 1377.5203 14.2709
v  -53.2659 1377.5203 22.2486
v  -128.4093 1358.3440 22.2486
v  -319.1554 1065.7581 14.2760
v  -319.1554 1065.7581 6.2982
v  -291.6384 1235.9791 6.2982
v  -291.6384 1235.9791 14.2760
v  -249.4556 1285.8325 6.2982
v  -249.4556 1285.8325 14.2709
v  -249.4556 1285.8325 22.2486
v  -291.6384 1235.9791 22.2486
v  -319.1554 1065.7581 22.2486
v  -319.1554 1065.7581 46.1819
v  -319.1554 1065.7581 38.2041
v  -291.6384 1235.9791 38.2041
v  -291.6384 1235.9791 46.1819
v  -249.4556 1285.8325 38.2041
v  -249.4556 1285.8325 46.1819
v  -251.3482 1287.0818 52.1626
v  -293.8366 1236.8804 52.1626
v  -321.5488 1066.3060 52.1626
v  -128.4093 1358.3440 -49.5409
v  -128.4093 1358.3440 -57.5187
v  -53.2659 1377.5203 -57.5187
v  -53.2659 1377.5203 -49.5409
v  -53.2659 1377.5203 -41.5632
v  -128.4093 1358.3440 -41.5632
v  -319.1554 1065.7581 -49.5409
v  -319.1554 1065.7581 -57.5187
v  -291.6384 1235.9791 -57.5187
v  -291.6384 1235.9791 -49.5409
v  -249.4556 1285.8325 -57.5187
v  -249.4556 1285.8325 -49.5409
v  -249.4556 1285.8325 -41.5632
v  -291.6384 1235.9791 -41.5632
v  -319.1554 1065.7581 -41.5632
v  -319.1554 1065.7581 -17.6350
v  -319.1554 1065.7581 -25.6128
v  -291.6384 1235.9791 -25.6128
v  -291.6384 1235.9791 -17.6350
v  -249.4556 1285.8325 -25.6128
v  -249.4556 1285.8325 -17.6350
v  -249.4556 1285.8325 -9.6573
v  -291.6384 1235.9791 -9.6573
v  -319.1554 1065.7581 -9.6573
v  -254.6390 1388.9851 -73.4742
v  -170.2279 1428.9456 -73.4742
v  -166.0461 1421.8844 -73.4742
v  -248.6166 1382.8046 -73.4742
v  -161.8642 1414.8232 -73.4742
v  -242.6007 1376.6293 -73.4742
v  -310.0893 1325.8901 -73.4742
v  -317.6726 1330.8979 -73.4742
v  -325.2494 1335.9059 -73.4742
v  -278.7286 1413.6967 -73.4742
v  -186.9553 1457.1852 -73.4742
v  -182.7735 1450.1240 -73.4742
v  -272.7062 1407.5214 -73.4742
v  -178.5916 1443.0679 -73.4742
v  -266.6838 1401.3408 -73.4742
v  -340.4094 1345.9216 -73.4742
v  -347.9862 1350.9294 -73.4742
v  -355.5695 1355.9373 -73.4742
v  -370.6060 1268.3458 54.1596
v  -379.3794 1271.9404 54.1596
v  -414.9219 1087.5970 54.1596
v  -405.3485 1085.4106 54.1596
v  -395.7686 1083.2292 54.1596
v  -361.8325 1264.7462 54.1596
v  -310.0893 1325.8901 54.1596
v  -317.6726 1330.8979 54.1596
v  -325.2494 1335.9059 54.1596
v  -405.7062 1282.7294 54.1596
v  -414.4797 1286.3240 54.1596
v  -453.2285 1096.3326 54.1596
v  -443.6487 1094.1462 54.1596
v  -434.0753 1091.9648 54.1596
v  -396.9263 1279.1349 54.1596
v  -340.4094 1345.9216 54.1596
v  -347.9862 1350.9294 54.1596
v  -355.5695 1355.9373 54.1596
v  -83.2413 1483.9705 54.1596
v  -186.9553 1457.1852 54.1596
v  -182.7735 1450.1240 54.1596
v  -81.1016 1476.3666 54.1596
v  -178.5916 1443.0679 54.1596
v  -78.9619 1468.7627 54.1596
v  -300.4184 1239.5737 54.1596
v  -309.1918 1243.1735 54.1596
v  -338.3087 1070.1259 54.1596
v  -328.7353 1067.9446 54.1596
v  -257.0324 1290.8403 54.1596
v  -264.6157 1295.8481 54.1596
v  -335.5121 1253.9624 54.1596
v  -344.2856 1257.5570 54.1596
v  -376.6153 1078.8616 54.1596
v  -367.0419 1076.6802 54.1596
v  -357.4620 1074.4937 54.1596
v  -326.7387 1250.3627 54.1596
v  -279.7757 1305.8639 54.1596
v  -287.3525 1310.8666 54.1596
v  -294.9293 1315.8744 54.1596
v  -66.1172 1423.1439 54.1596
v  -153.5005 1400.7059 54.1596
v  -149.3186 1393.6448 54.1596
v  -63.9710 1415.5400 54.1596
v  -145.1367 1386.5836 54.1596
v  -61.8312 1407.9362 54.1596
v  -206.4663 1339.5569 -73.4742
v  -136.7730 1372.4612 -73.4742
v  -132.5912 1365.4000 -73.4742
v  -200.4440 1333.3763 -73.4742
v  -129.4564 1360.1053 -71.4772
v  -195.9304 1328.7423 -71.4772
v  -251.3482 1287.0818 -71.4772
v  -257.0324 1290.8403 -73.4742
v  -264.6157 1295.8481 -73.4742
v  -230.5559 1364.2684 -73.4742
v  -153.5005 1400.7059 -73.4742
v  -149.3186 1393.6448 -73.4742
v  -224.5335 1358.0930 -73.4742
v  -145.1367 1386.5836 -73.4742
v  -218.5111 1351.9126 -73.4742
v  -279.7757 1305.8588 -73.4742
v  -287.3525 1310.8666 -73.4742
v  -294.9293 1315.8744 -73.4742
v  -195.3125 1471.3075 14.2709
v  -195.3125 1471.3075 6.2982
v  -290.7734 1426.0575 6.2982
v  -290.7734 1426.0575 14.2709
v  -370.7295 1365.9480 6.2982
v  -370.7295 1365.9480 14.2709
v  -370.7295 1365.9480 22.2486
v  -290.7734 1426.0575 22.2486
v  -195.3125 1471.3075 22.2486
v  -195.3125 1471.3075 46.1819
v  -195.3125 1471.3075 38.2041
v  -290.7734 1426.0575 38.2041
v  -290.7734 1426.0575 46.1819
v  -370.7295 1365.9480 38.2041
v  -370.7295 1365.9480 46.1819
v  -368.8304 1364.6985 52.1626
v  -289.2646 1424.5112 52.1626
v  -194.2720 1469.5409 52.1626
v  -195.3125 1471.3075 30.2264
v  -290.7734 1426.0575 30.2264
v  -370.7295 1365.9480 30.2264
v  -87.5207 1499.1785 22.2486
v  -87.5207 1499.1785 30.2264
v  -87.5207 1499.1785 38.2041
v  -87.5207 1499.1785 46.1819
v  -86.9874 1497.2736 52.1626
v  -195.3125 1471.3075 -1.6795
v  -290.7734 1426.0575 -1.6795
v  -370.7295 1365.9480 -1.6795
v  -87.5207 1499.1785 -9.6573
v  -87.5207 1499.1785 -1.6795
v  -87.5207 1499.1785 6.2982
v  -87.5207 1499.1785 14.2709
v  -432.0266 1293.5183 -9.6573
v  -432.0266 1293.5183 -1.6795
v  -472.3819 1100.6953 -9.6573
v  -472.3819 1100.6953 -1.6795
v  -472.3819 1100.6953 6.2982
v  -432.0266 1293.5183 6.2982
v  -432.0266 1293.5183 14.2709
v  -472.3819 1100.6953 14.2760
v  -472.3819 1100.6953 22.2486
v  -432.0266 1293.5183 22.2486
v  -344.2856 1257.5570 -73.4742
v  -335.5121 1253.9624 -73.4742
v  -326.7387 1250.3627 -73.4742
v  -357.4620 1074.4937 -73.4742
v  -367.0419 1076.6802 -73.4742
v  -376.6153 1078.8616 -73.4742
v  -361.8325 1264.7462 -73.4742
v  -302.5125 1320.8823 -73.4742
v  -353.0590 1261.1516 -73.4742
v  -386.1952 1081.0428 -73.4742
v  -395.7686 1083.2292 -73.4742
v  -66.1172 1423.1439 -73.4742
v  -63.9710 1415.5400 -73.4742
v  -61.8312 1407.9362 -73.4742
v  -70.3966 1438.3468 -73.4742
v  -68.2569 1430.7479 -73.4742
v  -157.6823 1407.7620 -73.4742
v  -236.5783 1370.4489 -73.4742
v  -57.5518 1392.7281 -73.4742
v  -55.4121 1385.1241 -73.4742
v  -53.8057 1379.4250 -71.4772
v  -59.6915 1400.3322 -73.4742
v  -140.9549 1379.5223 -73.4742
v  -212.4887 1345.7322 -73.4742
v  -272.1924 1300.8561 -73.4742
v  -230.5559 1364.2684 54.1596
v  -224.5335 1358.0930 54.1596
v  -218.5111 1351.9126 54.1596
v  -242.6007 1376.6293 54.1596
v  -302.5125 1320.8823 54.1596
v  -236.5783 1370.4489 54.1596
v  -157.6823 1407.7620 54.1596
v  -68.2569 1430.7479 54.1596
v  -353.0590 1261.1516 54.1596
v  -386.1952 1081.0428 54.1596
v  -317.9652 1246.7681 54.1596
v  -347.8886 1072.3124 54.1596
v  -272.1924 1300.8561 54.1596
v  -278.7286 1413.6967 54.1596
v  -272.7062 1407.5214 54.1596
v  -266.6838 1401.3408 54.1596
v  -363.1462 1360.9452 54.1596
v  -284.7510 1419.8771 54.1596
v  -191.1307 1464.2463 54.1596
v  -85.3810 1491.5745 54.1596
v  -423.2531 1289.9186 54.1596
v  -429.8284 1292.6172 52.1626
v  -469.9885 1100.1525 52.1626
v  -462.8020 1098.5139 54.1596
v  -388.1529 1275.5350 54.1596
v  -424.5019 1089.7784 54.1596
v  -332.8326 1340.9137 54.1596
v  -414.4797 1286.3240 -73.4742
v  -405.6997 1282.7294 -73.4742
v  -396.9263 1279.1349 -73.4742
v  -434.0753 1091.9648 -73.4742
v  -443.6487 1094.1462 -73.4742
v  -453.2285 1096.3326 -73.4742
v  -429.8284 1292.6172 -71.4772
v  -368.8304 1364.6985 -71.4772
v  -363.1462 1360.9452 -73.4742
v  -423.2531 1289.9186 -73.4742
v  -462.8020 1098.5139 -73.4742
v  -469.9885 1100.1525 -71.4772
v  -83.2413 1483.9705 -73.4742
v  -81.1016 1476.3666 -73.4742
v  -78.9619 1468.7627 -73.4742
v  -86.9874 1497.2736 -71.4772
v  -85.3810 1491.5745 -73.4742
v  -191.1307 1464.2463 -73.4742
v  -194.2720 1469.5409 -71.4772
v  -289.2646 1424.5112 -71.4772
v  -284.7510 1419.8771 -73.4742
v  -74.6760 1453.5547 -73.4742
v  -72.5363 1445.9507 -73.4742
v  -174.4098 1436.0067 -73.4742
v  -260.6614 1395.1604 -73.4742
v  -332.8326 1340.9137 -73.4742
v  -319.1554 1065.7581 -33.5905
v  -291.6384 1235.9791 -33.5905
v  -249.4556 1285.8325 -33.5905
v  -291.6384 1235.9791 -65.4964
v  -319.1554 1065.7581 -65.4964
v  -321.5488 1066.3060 -71.4772
v  -293.8366 1236.8804 -71.4772
v  -249.4556 1285.8325 -65.4964
v  -128.4093 1358.3440 -65.4964
v  -53.2659 1377.5203 -65.4964
v  -194.4215 1327.1958 -65.4964
v  -194.4215 1327.1958 -57.5187
v  -194.4215 1327.1958 -49.5409
v  -194.4215 1327.1958 -41.5632
v  -319.1554 1065.7581 30.2264
v  -291.6384 1235.9791 30.2264
v  -249.4556 1285.8325 30.2264
v  -319.1554 1065.7581 -1.6795
v  -291.6384 1235.9791 -1.6795
v  -249.4556 1285.8325 -1.6795
v  -128.4093 1358.3440 -1.6795
v  -53.2659 1377.5203 -1.6795
v  -194.4215 1327.1958 -9.6573
v  -194.4215 1327.1958 -1.6795
v  -194.4215 1327.1958 6.2982
v  -194.4215 1327.1958 14.2709
v  -194.4215 1327.1958 22.2486
v  -195.3125 1471.3075 -33.5905
v  -290.7734 1426.0575 -33.5905
v  -370.7295 1365.9480 -33.5905
v  -87.5207 1499.1785 -41.5632
v  -87.5207 1499.1785 -33.5905
v  -87.5207 1499.1785 -25.6128
v  -87.5207 1499.1785 -17.6350
v  -195.3125 1471.3075 -65.4964
v  -290.7734 1426.0575 -65.4964
v  -370.7295 1365.9480 -65.4964
v  -87.5207 1499.1785 -65.4964
v  -87.5207 1499.1785 -57.5187
v  -87.5207 1499.1785 -49.5409
v  -432.0266 1293.5183 -65.4964
v  -472.3819 1100.6953 -65.4964
v  -472.3819 1100.6953 -57.5187
v  -432.0266 1293.5183 -57.5187
v  -432.0266 1293.5183 -49.5409
v  -472.3819 1100.6953 -49.5409
v  -472.3819 1100.6953 -41.5632
v  -432.0266 1293.5183 -41.5632
v  -432.0266 1293.5183 -33.5905
v  -472.3819 1100.6953 -33.5905
v  -472.3819 1100.6953 -25.6128
v  -432.0266 1293.5183 -25.6128
v  -432.0266 1293.5183 -17.6350
v  -472.3819 1100.6953 -17.6350
v  -128.4093 1358.3440 30.2264
v  -53.2659 1377.5203 30.2264
v  -53.2659 1377.5203 38.2041
v  -128.4093 1358.3440 38.2041
v  -194.4215 1327.1958 30.2264
v  -194.4215 1327.1958 38.2041
v  -194.4215 1327.1958 46.1819
v  -128.4093 1358.3440 46.1819
v  -129.4564 1360.1053 52.1626
v  -195.9304 1328.7423 52.1626
v  -128.4093 1358.3440 -33.5905
v  -53.2659 1377.5203 -33.5905
v  -194.4215 1327.1958 -33.5905
v  -194.4215 1327.1958 -25.6128
v  -194.4215 1327.1958 -17.6350
v  -379.3794 1271.9404 -73.4742
v  -370.6060 1268.3458 -73.4742
v  -405.3485 1085.4106 -73.4742
v  -414.9219 1087.5970 -73.4742
v  -388.1529 1275.5350 -73.4742
v  -424.5019 1089.7784 -73.4742
v  -254.6390 1388.9851 54.1596
v  -248.6166 1382.8046 54.1596
v  -260.6614 1395.1604 54.1596
v  -174.4098 1436.0067 54.1596
v  -76.8222 1461.1587 54.1596
v  -206.4663 1339.5569 54.1596
v  -200.4440 1333.3763 54.1596
v  -132.5912 1365.4000 54.1596
v  -136.7730 1372.4612 54.1596
v  -212.4887 1345.7322 54.1596
v  -140.9549 1379.5223 54.1596
v  -59.6915 1400.3322 54.1596
v  -57.5518 1392.7281 54.1596
v  -309.1918 1243.1735 -73.4742
v  -300.4184 1239.5737 -73.4742
v  -328.7353 1067.9446 -73.4742
v  -338.3087 1070.1259 -73.4742
v  -317.9652 1246.7681 -73.4742
v  -347.8886 1072.3124 -73.4742
v  -432.0266 1293.5183 30.2264
v  -472.3819 1100.6953 30.2264
v  -472.3819 1100.6953 38.2041
v  -432.0266 1293.5183 38.2041
v  -432.0266 1293.5183 46.1819
v  -472.3819 1100.6953 46.1819
v  -55.4121 1385.1241 54.1596
v  -53.8057 1379.4250 52.1626
v  -53.2659 1377.5203 46.1819
v  -76.8222 1461.1587 -73.4742
# 832 vertices

vn -0.0631 0.9884 0.1385
vn 0.0000 1.0000 0.0000
vn -0.0319 0.9882 0.1498
vn 0.0000 0.9882 0.1531
vn 0.0000 0.9463 0.3232
vn -0.0670 0.9463 0.3162
vn -0.1335 0.9464 0.2941
vn -0.0000 1.0000 0.0000
vn -0.2076 0.0000 0.9782
vn -0.4138 0.0000 0.9104
vn -0.4138 -0.0000 0.9104
vn -0.2076 -0.0000 0.9782
vn 0.0000 0.0000 1.0000
vn -0.0000 0.0000 1.0000
vn -0.4085 0.1585 0.8989
vn -0.2049 0.1582 0.9659
vn -0.3937 0.3096 0.8655
vn -0.1976 0.3094 0.9302
vn 0.0000 0.3094 0.9509
vn 0.0000 0.1583 0.9874
vn 0.6069 -0.0000 -0.7948
vn 0.4165 -0.0000 -0.9091
vn 0.4165 0.0000 -0.9091
vn 0.6069 0.0000 -0.7948
vn 0.7660 -0.0000 -0.6428
vn 0.7660 0.0000 -0.6428
vn -0.9369 0.0000 0.3496
vn -0.9973 0.0000 0.0740
vn -0.7660 0.0000 0.6428
vn -0.9853 0.1547 0.0722
vn -0.9256 0.1613 0.3425
vn -0.9499 0.3039 0.0728
vn -0.8884 0.3116 0.3372
vn -0.7284 0.3095 0.6112
vn -0.7564 0.1584 0.6347
vn 0.0000 -1.0000 0.0000
vn 0.0000 -1.0000 -0.0000
vn 0.0000 1.0000 -0.0000
vn -0.1296 0.9903 0.0510
vn -0.1609 0.9869 0.0133
vn -0.1168 0.9883 0.0980
vn -0.2475 0.9464 0.2076
vn -0.3030 0.9469 0.1072
vn -0.3275 0.9446 0.0227
vn -0.0631 -0.9884 0.1385
vn -0.0924 -0.9883 0.1212
vn -0.1168 -0.9883 0.0980
vn -0.2475 -0.9464 0.2076
vn -0.1957 -0.9464 0.2570
vn -0.1335 -0.9464 0.2941
vn 0.2103 0.0000 -0.9776
vn -0.0000 0.0000 -1.0000
vn 0.0000 0.0000 -1.0000
vn 0.0000 0.1550 -0.9879
vn 0.2078 0.1550 -0.9658
vn 0.0000 0.3094 -0.9509
vn 0.1998 0.3094 -0.9297
vn 0.3959 0.3096 -0.8645
vn 0.4116 0.1550 -0.8981
vn 0.9303 0.0000 -0.3668
vn 0.9303 -0.0000 -0.3668
vn 0.9952 0.0000 -0.0975
vn 0.9952 -0.0000 -0.0975
vn -0.0000 -1.0000 -0.0000
vn -0.0000 -1.0000 0.0000
vn 0.0000 -0.9882 0.1531
vn -0.0319 -0.9882 0.1498
vn -0.0670 -0.9463 0.3162
vn -0.0000 -0.9463 0.3232
vn 0.1340 0.9846 -0.1124
vn 0.2475 0.9464 -0.2076
vn 0.1961 0.9464 -0.2567
vn 0.1061 0.9846 -0.1390
vn 0.1346 0.9464 -0.2936
vn 0.0728 0.9846 -0.1592
vn 0.0681 0.9463 -0.3159
vn 0.0366 0.9847 -0.1706
vn 0.0000 0.9463 -0.3232
vn 0.0000 0.9847 -0.1745
vn 0.1340 -0.9846 -0.1124
vn 0.2475 -0.9464 -0.2076
vn 0.2969 -0.9471 -0.1216
vn 0.1722 -0.9829 -0.0650
vn 0.3256 -0.9449 -0.0343
vn 0.1716 -0.9850 -0.0155
vn -0.0000 -0.9847 -0.1745
vn -0.0000 -0.9463 -0.3232
vn 0.0681 -0.9463 -0.3159
vn 0.0366 -0.9847 -0.1706
vn 0.1346 -0.9464 -0.2936
vn 0.0728 -0.9846 -0.1592
vn 0.1961 -0.9464 -0.2567
vn 0.1061 -0.9846 -0.1390
vn -0.9256 -0.1613 0.3425
vn -0.8884 -0.3116 0.3372
vn -0.9499 -0.3039 0.0728
vn -0.9853 -0.1547 0.0722
vn -0.7564 -0.1584 0.6347
vn -0.7284 -0.3095 0.6112
vn -0.1976 -0.3094 0.9302
vn -0.3937 -0.3096 0.8655
vn -0.4085 -0.1585 0.8989
vn -0.2049 -0.1582 0.9659
vn 0.0000 -0.1583 0.9874
vn 0.0000 -0.3094 0.9509
vn -0.5763 -0.3096 0.7563
vn -0.5983 -0.1585 0.7854
vn -0.6060 -0.0000 0.7954
vn -0.6060 0.0000 0.7954
vn 0.5770 -0.3095 -0.7558
vn 0.3959 -0.3096 -0.8645
vn 0.4116 -0.1550 -0.8981
vn 0.5996 -0.1550 -0.7852
vn 0.7568 -0.1550 -0.6350
vn 0.7284 -0.3095 -0.6112
vn 0.1998 -0.3094 -0.9297
vn 0.0000 -0.3094 -0.9509
vn 0.0000 -0.1550 -0.9879
vn 0.2078 -0.1550 -0.9658
vn 0.8856 -0.3115 -0.3445
vn 0.9184 -0.1546 -0.3642
vn 0.9833 -0.1537 -0.0974
vn 0.9478 -0.3058 -0.0905
vn -0.5983 0.1585 0.7854
vn -0.5763 0.3096 0.7563
vn -0.0924 0.9883 0.1212
vn -0.1957 0.9464 0.2570
vn -0.1296 -0.9903 0.0510
vn -0.1609 -0.9869 0.0133
vn -0.3275 -0.9446 0.0227
vn -0.3030 -0.9469 0.1072
vn 0.5996 0.1550 -0.7852
vn 0.5770 0.3095 -0.7558
vn 0.7284 0.3095 -0.6112
vn 0.7568 0.1550 -0.6350
vn 0.1722 0.9829 -0.0650
vn 0.1716 0.9850 -0.0155
vn 0.3256 0.9449 -0.0343
vn 0.2969 0.9471 -0.1216
vn 0.9184 0.1546 -0.3642
vn 0.8856 0.3115 -0.3445
vn 0.9478 0.3058 -0.0905
vn 0.9833 0.1537 -0.0974
vn -0.0000 1.0000 -0.0000
vn 0.4138 0.0000 0.9104
vn 0.2076 0.0000 0.9782
vn -0.4165 0.0000 -0.9091
vn -0.6069 0.0000 -0.7948
vn -0.7660 0.0000 -0.6428
vn 0.9973 0.0000 0.0740
vn 0.9369 0.0000 0.3496
vn 0.7660 0.0000 0.6428
vn 0.9853 0.1547 0.0722
vn 0.9256 0.1613 0.3425
vn 0.7564 0.1584 0.6347
vn 0.7284 0.3095 0.6112
vn 0.8884 0.3116 0.3372
vn 0.9499 0.3039 0.0728
vn 0.1296 0.9903 0.0510
vn 0.1609 0.9869 0.0133
vn 0.3275 0.9446 0.0227
vn 0.3030 0.9469 0.1072
vn 0.2475 0.9464 0.2076
vn 0.1168 0.9883 0.0980
vn 0.0631 -0.9884 0.1385
vn 0.0924 -0.9883 0.1212
vn 0.1335 -0.9464 0.2941
vn 0.1957 -0.9464 0.2570
vn 0.2475 -0.9464 0.2076
vn 0.1168 -0.9883 0.0980
vn -0.4116 0.1550 -0.8981
vn -0.5996 0.1550 -0.7852
vn -0.7568 0.1550 -0.6350
vn -0.7284 0.3095 -0.6112
vn -0.5770 0.3095 -0.7558
vn -0.3959 0.3096 -0.8645
vn -0.2103 0.0000 -0.9776
vn -0.2078 0.1550 -0.9658
vn -0.1998 0.3094 -0.9297
vn -0.9303 0.0000 -0.3668
vn -0.9303 -0.0000 -0.3668
vn -0.9952 0.0000 -0.0975
vn -0.9952 -0.0000 -0.0975
vn 0.0319 -0.9882 0.1498
vn 0.0670 -0.9463 0.3162
vn -0.1961 0.9464 -0.2567
vn -0.2475 0.9464 -0.2076
vn -0.1340 0.9846 -0.1124
vn -0.1061 0.9846 -0.1390
vn -0.0728 0.9846 -0.1592
vn -0.1346 0.9464 -0.2936
vn -0.0681 0.9463 -0.3159
vn -0.0366 0.9847 -0.1706
vn -0.1722 0.9829 -0.0650
vn -0.2969 0.9471 -0.1216
vn -0.3256 0.9449 -0.0343
vn -0.1716 0.9850 -0.0155
vn -0.2969 -0.9471 -0.1216
vn -0.2475 -0.9464 -0.2076
vn -0.1340 -0.9846 -0.1124
vn -0.1722 -0.9829 -0.0650
vn -0.1716 -0.9850 -0.0155
vn -0.3256 -0.9449 -0.0343
vn -0.0681 -0.9463 -0.3159
vn -0.0366 -0.9847 -0.1706
vn -0.0728 -0.9846 -0.1592
vn -0.1346 -0.9464 -0.2936
vn -0.1961 -0.9464 -0.2567
vn -0.1061 -0.9846 -0.1390
vn 0.9256 -0.1613 0.3425
vn 0.9853 -0.1547 0.0722
vn 0.9499 -0.3039 0.0728
vn 0.8884 -0.3116 0.3372
vn 0.7284 -0.3095 0.6112
vn 0.7564 -0.1584 0.6347
vn 0.4085 -0.1585 0.8989
vn 0.3937 -0.3096 0.8655
vn 0.1976 -0.3094 0.9302
vn 0.2049 -0.1582 0.9659
vn 0.5763 -0.3096 0.7563
vn 0.5983 -0.1585 0.7854
vn 0.6060 0.0000 0.7954
vn -0.4116 -0.1550 -0.8981
vn -0.3959 -0.3096 -0.8645
vn -0.5770 -0.3095 -0.7558
vn -0.5996 -0.1550 -0.7852
vn -0.7284 -0.3095 -0.6112
vn -0.7568 -0.1550 -0.6350
vn -0.1998 -0.3094 -0.9297
vn -0.2078 -0.1550 -0.9658
vn -0.8856 -0.3115 -0.3445
vn -0.9184 -0.1546 -0.3642
vn -0.9478 -0.3058 -0.0905
vn -0.9833 -0.1537 -0.0974
vn 0.5983 0.1585 0.7854
vn 0.4085 0.1585 0.8989
vn 0.3937 0.3096 0.8655
vn 0.5763 0.3096 0.7563
vn 0.0924 0.9883 0.1212
vn 0.1957 0.9464 0.2570
vn 0.1335 0.9464 0.2941
vn 0.0631 0.9884 0.1385
vn 0.1296 -0.9903 0.0510
vn 0.3030 -0.9469 0.1072
vn 0.3275 -0.9446 0.0227
vn 0.1609 -0.9869 0.0133
vn -0.9184 0.1546 -0.3642
vn -0.9833 0.1537 -0.0974
vn -0.9478 0.3058 -0.0905
vn -0.8856 0.3115 -0.3445
vn 0.0319 0.9882 0.1498
vn 0.0670 0.9463 0.3162
vn 0.2049 0.1582 0.9659
vn 0.1976 0.3094 0.9302
# 254 vertex normals

vt 0.2023 0.4679 0.0000
vt 0.2033 0.4701 0.0000
vt 0.1846 0.4761 0.0000
vt 0.1841 0.4739 0.0000
vt 0.1648 0.4782 0.0000
vt 0.1648 0.4759 0.0000
vt 0.1648 0.4736 0.0000
vt 0.1836 0.4716 0.0000
vt 0.2013 0.4658 0.0000
vt 0.2102 0.4849 0.0000
vt 0.2112 0.4870 0.0000
vt 0.1886 0.4944 0.0000
vt 0.1881 0.4921 0.0000
vt 0.1648 0.4969 0.0000
vt 0.1648 0.4946 0.0000
vt 0.1648 0.4923 0.0000
vt 0.1876 0.4898 0.0000
vt 0.2092 0.4828 0.0000
vt 0.8726 0.0642 0.0000
vt 0.8536 0.0642 0.0000
vt 0.8536 0.0665 0.0000
vt 0.8726 0.0665 0.0000
vt 0.8536 0.0689 0.0000
vt 0.8726 0.0689 0.0000
vt 0.8918 0.0689 0.0000
vt 0.8918 0.0665 0.0000
vt 0.8918 0.0642 0.0000
vt 0.8726 0.0833 0.0000
vt 0.8536 0.0833 0.0000
vt 0.8536 0.0857 0.0000
vt 0.8726 0.0857 0.0000
vt 0.8536 0.0881 0.0000
vt 0.8726 0.0881 0.0000
vt 0.8918 0.0881 0.0000
vt 0.8918 0.0857 0.0000
vt 0.8918 0.0833 0.0000
vt 0.8700 0.1218 0.0000
vt 0.8968 0.1218 0.0000
vt 0.8968 0.1195 0.0000
vt 0.8700 0.1195 0.0000
vt 0.8968 0.1171 0.0000
vt 0.8700 0.1171 0.0000
vt 0.8434 0.1171 0.0000
vt 0.8434 0.1195 0.0000
vt 0.8434 0.1218 0.0000
vt 0.8700 0.1123 0.0000
vt 0.8968 0.1123 0.0000
vt 0.8968 0.1099 0.0000
vt 0.8700 0.1099 0.0000
vt 0.8968 0.1075 0.0000
vt 0.8700 0.1075 0.0000
vt 0.8434 0.1075 0.0000
vt 0.8434 0.1099 0.0000
vt 0.8434 0.1123 0.0000
vt 0.8726 0.0737 0.0000
vt 0.8536 0.0737 0.0000
vt 0.8536 0.0761 0.0000
vt 0.8726 0.0761 0.0000
vt 0.8536 0.0785 0.0000
vt 0.8726 0.0785 0.0000
vt 0.8918 0.0785 0.0000
vt 0.8918 0.0761 0.0000
vt 0.8918 0.0737 0.0000
vt 0.7984 0.0737 0.0000
vt 0.7466 0.0737 0.0000
vt 0.7466 0.0761 0.0000
vt 0.7984 0.0761 0.0000
vt 0.7466 0.0785 0.0000
vt 0.7984 0.0785 0.0000
vt 0.8167 0.0785 0.0000
vt 0.8167 0.0761 0.0000
vt 0.8167 0.0737 0.0000
vt 0.7984 0.0833 0.0000
vt 0.7466 0.0833 0.0000
vt 0.7466 0.0857 0.0000
vt 0.7984 0.0857 0.0000
vt 0.7466 0.0881 0.0000
vt 0.7984 0.0881 0.0000
vt 0.8167 0.0881 0.0000
vt 0.8167 0.0857 0.0000
vt 0.8167 0.0833 0.0000
vt 0.8726 0.0546 0.0000
vt 0.8536 0.0546 0.0000
vt 0.8536 0.0570 0.0000
vt 0.8726 0.0570 0.0000
vt 0.8536 0.0594 0.0000
vt 0.8726 0.0594 0.0000
vt 0.8918 0.0594 0.0000
vt 0.8918 0.0570 0.0000
vt 0.8918 0.0546 0.0000
vt 0.7984 0.0546 0.0000
vt 0.7466 0.0546 0.0000
vt 0.7466 0.0570 0.0000
vt 0.7984 0.0570 0.0000
vt 0.7466 0.0594 0.0000
vt 0.7984 0.0594 0.0000
vt 0.8167 0.0594 0.0000
vt 0.8167 0.0570 0.0000
vt 0.8167 0.0546 0.0000
vt 0.7984 0.0642 0.0000
vt 0.7466 0.0642 0.0000
vt 0.7466 0.0665 0.0000
vt 0.7984 0.0665 0.0000
vt 0.7466 0.0689 0.0000
vt 0.7984 0.0689 0.0000
vt 0.8167 0.0689 0.0000
vt 0.8167 0.0665 0.0000
vt 0.8167 0.0642 0.0000
vt 0.1245 0.9318 0.0000
vt 0.1235 0.9339 0.0000
vt 0.1036 0.9219 0.0000
vt 0.1050 0.9200 0.0000
vt 0.0869 0.9060 0.0000
vt 0.0887 0.9045 0.0000
vt 0.0905 0.9030 0.0000
vt 0.1064 0.9182 0.0000
vt 0.1255 0.9297 0.0000
vt 0.1205 0.9402 0.0000
vt 0.1195 0.9424 0.0000
vt 0.0979 0.9293 0.0000
vt 0.0993 0.9275 0.0000
vt 0.0797 0.9120 0.0000
vt 0.0815 0.9105 0.0000
vt 0.0833 0.9090 0.0000
vt 0.1007 0.9256 0.0000
vt 0.1215 0.9381 0.0000
vt 0.2586 0.4388 0.0000
vt 0.2668 0.3847 0.0000
vt 0.2690 0.3854 0.0000
vt 0.2606 0.4399 0.0000
vt 0.2478 0.4591 0.0000
vt 0.2461 0.4576 0.0000
vt 0.2443 0.4561 0.0000
vt 0.2565 0.4377 0.0000
vt 0.2645 0.3841 0.0000
vt 0.2142 0.4934 0.0000
vt 0.2152 0.4955 0.0000
vt 0.1907 0.5035 0.0000
vt 0.1902 0.5012 0.0000
vt 0.1648 0.5063 0.0000
vt 0.1648 0.5040 0.0000
vt 0.1648 0.5016 0.0000
vt 0.1897 0.4990 0.0000
vt 0.2132 0.4913 0.0000
vt 0.2420 0.4302 0.0000
vt 0.2487 0.3795 0.0000
vt 0.2509 0.3802 0.0000
vt 0.2441 0.4313 0.0000
vt 0.2335 0.4471 0.0000
vt 0.2317 0.4456 0.0000
vt 0.2299 0.4441 0.0000
vt 0.2399 0.4291 0.0000
vt 0.2464 0.3789 0.0000
vt 0.2503 0.4345 0.0000
vt 0.2577 0.3821 0.0000
vt 0.2600 0.3828 0.0000
vt 0.2523 0.4356 0.0000
vt 0.2407 0.4531 0.0000
vt 0.2389 0.4516 0.0000
vt 0.2371 0.4501 0.0000
vt 0.2482 0.4334 0.0000
vt 0.2555 0.3815 0.0000
vt 0.2063 0.4764 0.0000
vt 0.2073 0.4785 0.0000
vt 0.1866 0.4853 0.0000
vt 0.1861 0.4830 0.0000
vt 0.1648 0.4876 0.0000
vt 0.1648 0.4853 0.0000
vt 0.1648 0.4829 0.0000
vt 0.1856 0.4807 0.0000
vt 0.2053 0.4743 0.0000
vt 0.1324 0.9148 0.0000
vt 0.1314 0.9169 0.0000
vt 0.1149 0.9071 0.0000
vt 0.1164 0.9052 0.0000
vt 0.1012 0.8939 0.0000
vt 0.1030 0.8924 0.0000
vt 0.1048 0.8909 0.0000
vt 0.1178 0.9034 0.0000
vt 0.1334 0.9127 0.0000
vt 0.1284 0.9233 0.0000
vt 0.1275 0.9254 0.0000
vt 0.1092 0.9145 0.0000
vt 0.1107 0.9126 0.0000
vt 0.0940 0.9000 0.0000
vt 0.0958 0.8984 0.0000
vt 0.0976 0.8969 0.0000
vt 0.1121 0.9108 0.0000
vt 0.1294 0.9212 0.0000
vt 0.8700 0.1027 0.0000
vt 0.8968 0.1027 0.0000
vt 0.8968 0.1003 0.0000
vt 0.8700 0.1003 0.0000
vt 0.8968 0.0979 0.0000
vt 0.8700 0.0979 0.0000
vt 0.8434 0.0979 0.0000
vt 0.8434 0.1003 0.0000
vt 0.8434 0.1027 0.0000
vt 0.8968 0.0955 0.0000
vt 0.8700 0.0955 0.0000
vt 0.8968 0.0931 0.0000
vt 0.8700 0.0931 0.0000
vt 0.8434 0.0931 0.0000
vt 0.8434 0.0955 0.0000
vt 0.9241 0.0979 0.0000
vt 0.9517 0.0979 0.0000
vt 0.9517 0.0955 0.0000
vt 0.9241 0.0955 0.0000
vt 0.9517 0.0931 0.0000
vt 0.9241 0.0931 0.0000
vt 0.9517 0.0907 0.0000
vt 0.9241 0.0907 0.0000
vt 0.9517 0.0883 0.0000
vt 0.9241 0.0883 0.0000
vt 0.8968 0.0883 0.0000
vt 0.8968 0.0907 0.0000
vt 0.8968 0.1051 0.0000
vt 0.8700 0.1051 0.0000
vt 0.8434 0.1051 0.0000
vt 0.9241 0.1075 0.0000
vt 0.9517 0.1075 0.0000
vt 0.9517 0.1051 0.0000
vt 0.9241 0.1051 0.0000
vt 0.9517 0.1027 0.0000
vt 0.9241 0.1027 0.0000
vt 0.9517 0.1003 0.0000
vt 0.9241 0.1003 0.0000
vt 0.8168 0.1075 0.0000
vt 0.8168 0.1051 0.0000
vt 0.8168 0.1027 0.0000
vt 0.7575 0.1027 0.0000
vt 0.7575 0.1051 0.0000
vt 0.7575 0.1075 0.0000
vt 0.8168 0.1003 0.0000
vt 0.8168 0.0979 0.0000
vt 0.7575 0.0979 0.0000
vt 0.7575 0.1003 0.0000
vt 0.0824 0.8824 0.0000
vt 0.0845 0.8814 0.0000
vt 0.0748 0.8296 0.0000
vt 0.0770 0.8290 0.0000
vt 0.0793 0.8283 0.0000
vt 0.0865 0.8803 0.0000
vt 0.0923 0.9015 0.0000
vt 0.0782 0.8846 0.0000
vt 0.0803 0.8835 0.0000
vt 0.0702 0.8310 0.0000
vt 0.0725 0.8303 0.0000
vt 0.1700 0.9321 0.0000
vt 0.1700 0.9345 0.0000
vt 0.1481 0.9322 0.0000
vt 0.1486 0.9299 0.0000
vt 0.1491 0.9276 0.0000
vt 0.1700 0.9298 0.0000
vt 0.1700 0.9368 0.0000
vt 0.1700 0.9392 0.0000
vt 0.1471 0.9367 0.0000
vt 0.1476 0.9344 0.0000
vt 0.1265 0.9275 0.0000
vt 0.1078 0.9163 0.0000
vt 0.1700 0.9228 0.0000
vt 0.1700 0.9251 0.0000
vt 0.1501 0.9230 0.0000
vt 0.1506 0.9208 0.0000
vt 0.1511 0.9185 0.0000
vt 0.1700 0.9205 0.0000
vt 0.1700 0.9275 0.0000
vt 0.1496 0.9253 0.0000
vt 0.1304 0.9191 0.0000
vt 0.1135 0.9089 0.0000
vt 0.0994 0.8954 0.0000
vt 0.2255 0.4676 0.0000
vt 0.2241 0.4658 0.0000
vt 0.2226 0.4639 0.0000
vt 0.2425 0.4546 0.0000
vt 0.2283 0.4713 0.0000
vt 0.2269 0.4695 0.0000
vt 0.2083 0.4807 0.0000
vt 0.1871 0.4876 0.0000
vt 0.1648 0.4899 0.0000
vt 0.2544 0.4367 0.0000
vt 0.2622 0.3834 0.0000
vt 0.2461 0.4323 0.0000
vt 0.2532 0.3808 0.0000
vt 0.2353 0.4486 0.0000
vt 0.2532 0.4636 0.0000
vt 0.2550 0.4651 0.0000
vt 0.2369 0.4824 0.0000
vt 0.2354 0.4806 0.0000
vt 0.2340 0.4787 0.0000
vt 0.2514 0.4621 0.0000
vt 0.2568 0.4666 0.0000
vt 0.2586 0.4681 0.0000
vt 0.2397 0.4861 0.0000
vt 0.2383 0.4843 0.0000
vt 0.2171 0.4997 0.0000
vt 0.2162 0.4976 0.0000
vt 0.1917 0.5081 0.0000
vt 0.1912 0.5058 0.0000
vt 0.1648 0.5110 0.0000
vt 0.1648 0.5086 0.0000
vt 0.2627 0.4410 0.0000
vt 0.2713 0.3861 0.0000
vt 0.2736 0.3867 0.0000
vt 0.2648 0.4421 0.0000
vt 0.2496 0.4606 0.0000
vt 0.0658 0.8911 0.0000
vt 0.0679 0.8900 0.0000
vt 0.0567 0.8349 0.0000
vt 0.0589 0.8342 0.0000
vt 0.0612 0.8336 0.0000
vt 0.0699 0.8889 0.0000
vt 0.0779 0.9135 0.0000
vt 0.0761 0.9150 0.0000
vt 0.0617 0.8932 0.0000
vt 0.0637 0.8922 0.0000
vt 0.0521 0.8362 0.0000
vt 0.0544 0.8355 0.0000
vt 0.1700 0.9509 0.0000
vt 0.1700 0.9532 0.0000
vt 0.1440 0.9504 0.0000
vt 0.1446 0.9481 0.0000
vt 0.1451 0.9459 0.0000
vt 0.1700 0.9485 0.0000
vt 0.1700 0.9555 0.0000
vt 0.1700 0.9579 0.0000
vt 0.1430 0.9550 0.0000
vt 0.1435 0.9527 0.0000
vt 0.1176 0.9466 0.0000
vt 0.1186 0.9445 0.0000
vt 0.0950 0.9330 0.0000
vt 0.0964 0.9312 0.0000
vt 0.1700 0.9415 0.0000
vt 0.1700 0.9438 0.0000
vt 0.1461 0.9413 0.0000
vt 0.1466 0.9390 0.0000
vt 0.1700 0.9462 0.0000
vt 0.1456 0.9436 0.0000
vt 0.1225 0.9360 0.0000
vt 0.1021 0.9237 0.0000
vt 0.0851 0.9075 0.0000
vt 0.7466 0.0618 0.0000
vt 0.7984 0.0618 0.0000
vt 0.8167 0.0618 0.0000
vt 0.7984 0.0522 0.0000
vt 0.7984 0.0498 0.0000
vt 0.7466 0.0498 0.0000
vt 0.7466 0.0522 0.0000
vt 0.8167 0.0522 0.0000
vt 0.8167 0.0498 0.0000
vt 0.8726 0.0498 0.0000
vt 0.8536 0.0498 0.0000
vt 0.8536 0.0522 0.0000
vt 0.8726 0.0522 0.0000
vt 0.8918 0.0522 0.0000
vt 0.8918 0.0498 0.0000
vt 0.8350 0.0498 0.0000
vt 0.8350 0.0522 0.0000
vt 0.8350 0.0546 0.0000
vt 0.8350 0.0570 0.0000
vt 0.8350 0.0594 0.0000
vt 0.7466 0.0713 0.0000
vt 0.7984 0.0713 0.0000
vt 0.8167 0.0713 0.0000
vt 0.8536 0.0713 0.0000
vt 0.8726 0.0713 0.0000
vt 0.8918 0.0713 0.0000
vt 0.8350 0.0689 0.0000
vt 0.8350 0.0713 0.0000
vt 0.8350 0.0737 0.0000
vt 0.8350 0.0761 0.0000
vt 0.8350 0.0785 0.0000
vt 0.8968 0.1147 0.0000
vt 0.8700 0.1147 0.0000
vt 0.8434 0.1147 0.0000
vt 0.9241 0.1171 0.0000
vt 0.9517 0.1171 0.0000
vt 0.9517 0.1147 0.0000
vt 0.9241 0.1147 0.0000
vt 0.9517 0.1123 0.0000
vt 0.9241 0.1123 0.0000
vt 0.9517 0.1099 0.0000
vt 0.9241 0.1099 0.0000
vt 0.8700 0.1266 0.0000
vt 0.8968 0.1266 0.0000
vt 0.8968 0.1242 0.0000
vt 0.8700 0.1242 0.0000
vt 0.8434 0.1242 0.0000
vt 0.8434 0.1266 0.0000
vt 0.9241 0.1266 0.0000
vt 0.9517 0.1266 0.0000
vt 0.9517 0.1242 0.0000
vt 0.9241 0.1242 0.0000
vt 0.9517 0.1218 0.0000
vt 0.9241 0.1218 0.0000
vt 0.9517 0.1195 0.0000
vt 0.9241 0.1195 0.0000
vt 0.8168 0.1266 0.0000
vt 0.8168 0.1242 0.0000
vt 0.8168 0.1218 0.0000
vt 0.7575 0.1218 0.0000
vt 0.7575 0.1242 0.0000
vt 0.7575 0.1266 0.0000
vt 0.8168 0.1195 0.0000
vt 0.8168 0.1171 0.0000
vt 0.7575 0.1171 0.0000
vt 0.7575 0.1195 0.0000
vt 0.8168 0.1147 0.0000
vt 0.8168 0.1123 0.0000
vt 0.7575 0.1123 0.0000
vt 0.7575 0.1147 0.0000
vt 0.8168 0.1099 0.0000
vt 0.7575 0.1099 0.0000
vt 0.8536 0.0809 0.0000
vt 0.8726 0.0809 0.0000
vt 0.8918 0.0809 0.0000
vt 0.8167 0.0809 0.0000
vt 0.8350 0.0809 0.0000
vt 0.8350 0.0833 0.0000
vt 0.8350 0.0857 0.0000
vt 0.8350 0.0881 0.0000
vt 0.8350 0.0618 0.0000
vt 0.8350 0.0642 0.0000
vt 0.8536 0.0618 0.0000
vt 0.8350 0.0665 0.0000
vt 0.0741 0.8868 0.0000
vt 0.0762 0.8857 0.0000
vt 0.0657 0.8323 0.0000
vt 0.0680 0.8316 0.0000
vt 0.0720 0.8878 0.0000
vt 0.0635 0.8329 0.0000
vt 0.2312 0.4750 0.0000
vt 0.2297 0.4732 0.0000
vt 0.2326 0.4769 0.0000
vt 0.2122 0.4891 0.0000
vt 0.1891 0.4967 0.0000
vt 0.1648 0.4993 0.0000
vt 0.2198 0.4602 0.0000
vt 0.2184 0.4583 0.0000
vt 0.2169 0.4565 0.0000
vt 0.2212 0.4620 0.0000
vt 0.2043 0.4722 0.0000
vt 0.1851 0.4784 0.0000
vt 0.1648 0.4806 0.0000
vt 0.0907 0.8781 0.0000
vt 0.0928 0.8771 0.0000
vt 0.0838 0.8270 0.0000
vt 0.0861 0.8264 0.0000
vt 0.0883 0.8257 0.0000
vt 0.0948 0.8760 0.0000
vt 0.0886 0.8792 0.0000
vt 0.0816 0.8277 0.0000
vt 0.8168 0.0955 0.0000
vt 0.8168 0.0931 0.0000
vt 0.7575 0.0931 0.0000
vt 0.7575 0.0955 0.0000
vt 0.2669 0.4431 0.0000
vt 0.2758 0.3874 0.0000
vt 0.2781 0.3880 0.0000
vt 0.2689 0.4442 0.0000
vt 0.8700 0.0907 0.0000
vt 0.8700 0.0883 0.0000
vt 0.8434 0.0883 0.0000
vt 0.8434 0.0907 0.0000
vt 0.2710 0.4453 0.0000
vt 0.2803 0.3887 0.0000
vt 0.2826 0.3893 0.0000
vt 0.2731 0.4464 0.0000
vt 0.7466 0.0809 0.0000
vt 0.7984 0.0809 0.0000
vt 0.8726 0.0618 0.0000
vt 0.8918 0.0618 0.0000
vt 0.8168 0.0907 0.0000
vt 0.8168 0.0883 0.0000
vt 0.7575 0.0883 0.0000
vt 0.7575 0.0907 0.0000
vt 0.1409 0.4944 0.0000
vt 0.1183 0.4870 0.0000
vt 0.1193 0.4849 0.0000
vt 0.1414 0.4921 0.0000
vt 0.1203 0.4828 0.0000
vt 0.1419 0.4898 0.0000
vt 0.8535 0.0280 0.0000
vt 0.8535 0.0256 0.0000
vt 0.8726 0.0256 0.0000
vt 0.8726 0.0280 0.0000
vt 0.8918 0.0256 0.0000
vt 0.8918 0.0280 0.0000
vt 0.8918 0.0304 0.0000
vt 0.8726 0.0304 0.0000
vt 0.8535 0.0304 0.0000
vt 0.8969 0.1341 0.0000
vt 0.8969 0.1317 0.0000
vt 0.8700 0.1317 0.0000
vt 0.8700 0.1341 0.0000
vt 0.8434 0.1317 0.0000
vt 0.8434 0.1341 0.0000
vt 0.8434 0.1365 0.0000
vt 0.8700 0.1365 0.0000
vt 0.8969 0.1365 0.0000
vt 0.8969 0.1436 0.0000
vt 0.8969 0.1412 0.0000
vt 0.8700 0.1412 0.0000
vt 0.8700 0.1436 0.0000
vt 0.8434 0.1412 0.0000
vt 0.8434 0.1436 0.0000
vt 0.8434 0.1460 0.0000
vt 0.8700 0.1460 0.0000
vt 0.8969 0.1460 0.0000
vt 0.8535 0.0376 0.0000
vt 0.8535 0.0352 0.0000
vt 0.8726 0.0352 0.0000
vt 0.8726 0.0376 0.0000
vt 0.8918 0.0352 0.0000
vt 0.8918 0.0376 0.0000
vt 0.8918 0.0400 0.0000
vt 0.8726 0.0400 0.0000
vt 0.8535 0.0400 0.0000
vt 0.7466 0.0376 0.0000
vt 0.7466 0.0352 0.0000
vt 0.7984 0.0352 0.0000
vt 0.7984 0.0376 0.0000
vt 0.8167 0.0352 0.0000
vt 0.8167 0.0376 0.0000
vt 0.8167 0.0400 0.0000
vt 0.7984 0.0400 0.0000
vt 0.7466 0.0400 0.0000
vt 0.7466 0.0472 0.0000
vt 0.7466 0.0448 0.0000
vt 0.7984 0.0448 0.0000
vt 0.7984 0.0472 0.0000
vt 0.8167 0.0448 0.0000
vt 0.8167 0.0472 0.0000
vt 0.8167 0.0496 0.0000
vt 0.7984 0.0496 0.0000
vt 0.7466 0.0496 0.0000
vt 0.8535 0.0184 0.0000
vt 0.8535 0.0160 0.0000
vt 0.8726 0.0160 0.0000
vt 0.8726 0.0184 0.0000
vt 0.8918 0.0160 0.0000
vt 0.8918 0.0184 0.0000
vt 0.8918 0.0208 0.0000
vt 0.8726 0.0208 0.0000
vt 0.8535 0.0208 0.0000
vt 0.7466 0.0184 0.0000
vt 0.7466 0.0160 0.0000
vt 0.7984 0.0160 0.0000
vt 0.7984 0.0184 0.0000
vt 0.8167 0.0160 0.0000
vt 0.8167 0.0184 0.0000
vt 0.8167 0.0208 0.0000
vt 0.7984 0.0208 0.0000
vt 0.7466 0.0208 0.0000
vt 0.7466 0.0280 0.0000
vt 0.7466 0.0256 0.0000
vt 0.7984 0.0256 0.0000
vt 0.7984 0.0280 0.0000
vt 0.8167 0.0256 0.0000
vt 0.8167 0.0280 0.0000
vt 0.8167 0.0304 0.0000
vt 0.7984 0.0304 0.0000
vt 0.7466 0.0304 0.0000
vt 0.2364 0.9219 0.0000
vt 0.2164 0.9339 0.0000
vt 0.2154 0.9318 0.0000
vt 0.2350 0.9201 0.0000
vt 0.2145 0.9297 0.0000
vt 0.2335 0.9182 0.0000
vt 0.2495 0.9030 0.0000
vt 0.2513 0.9045 0.0000
vt 0.2531 0.9060 0.0000
vt 0.2421 0.9294 0.0000
vt 0.2204 0.9424 0.0000
vt 0.2194 0.9403 0.0000
vt 0.2407 0.9275 0.0000
vt 0.2184 0.9382 0.0000
vt 0.2392 0.9256 0.0000
vt 0.2567 0.9090 0.0000
vt 0.2584 0.9105 0.0000
vt 0.2602 0.9120 0.0000
vt 0.0709 0.4388 0.0000
vt 0.0689 0.4399 0.0000
vt 0.0605 0.3854 0.0000
vt 0.0627 0.3847 0.0000
vt 0.0650 0.3841 0.0000
vt 0.0730 0.4377 0.0000
vt 0.0852 0.4561 0.0000
vt 0.0834 0.4576 0.0000
vt 0.0817 0.4591 0.0000
vt 0.0626 0.4431 0.0000
vt 0.0606 0.4442 0.0000
vt 0.0514 0.3880 0.0000
vt 0.0537 0.3874 0.0000
vt 0.0559 0.3867 0.0000
vt 0.0647 0.4421 0.0000
vt 0.0781 0.4621 0.0000
vt 0.0763 0.4636 0.0000
vt 0.0745 0.4651 0.0000
vt 0.1388 0.5035 0.0000
vt 0.1143 0.4955 0.0000
vt 0.1153 0.4934 0.0000
vt 0.1393 0.5012 0.0000
vt 0.1163 0.4913 0.0000
vt 0.1399 0.4990 0.0000
vt 0.0875 0.4302 0.0000
vt 0.0855 0.4313 0.0000
vt 0.0786 0.3802 0.0000
vt 0.0808 0.3795 0.0000
vt 0.0831 0.3789 0.0000
vt 0.0896 0.4291 0.0000
vt 0.0996 0.4441 0.0000
vt 0.0978 0.4456 0.0000
vt 0.0960 0.4471 0.0000
vt 0.0792 0.4345 0.0000
vt 0.0772 0.4356 0.0000
vt 0.0695 0.3828 0.0000
vt 0.0718 0.3821 0.0000
vt 0.0740 0.3815 0.0000
vt 0.0813 0.4334 0.0000
vt 0.0924 0.4501 0.0000
vt 0.0906 0.4516 0.0000
vt 0.0888 0.4531 0.0000
vt 0.1429 0.4853 0.0000
vt 0.1222 0.4785 0.0000
vt 0.1232 0.4764 0.0000
vt 0.1434 0.4830 0.0000
vt 0.1242 0.4743 0.0000
vt 0.1439 0.4807 0.0000
vt 0.2250 0.9071 0.0000
vt 0.2085 0.9170 0.0000
vt 0.2075 0.9149 0.0000
vt 0.2236 0.9052 0.0000
vt 0.2066 0.9127 0.0000
vt 0.2222 0.9034 0.0000
vt 0.2352 0.8910 0.0000
vt 0.2370 0.8925 0.0000
vt 0.2387 0.8940 0.0000
vt 0.2307 0.9145 0.0000
vt 0.2125 0.9254 0.0000
vt 0.2115 0.9233 0.0000
vt 0.2293 0.9127 0.0000
vt 0.2105 0.9212 0.0000
vt 0.2279 0.9108 0.0000
vt 0.2423 0.8970 0.0000
vt 0.2441 0.8985 0.0000
vt 0.2459 0.9000 0.0000
vt 0.8969 0.1532 0.0000
vt 0.8969 0.1508 0.0000
vt 0.8700 0.1508 0.0000
vt 0.8700 0.1532 0.0000
vt 0.8434 0.1508 0.0000
vt 0.8434 0.1532 0.0000
vt 0.8434 0.1556 0.0000
vt 0.8700 0.1556 0.0000
vt 0.8969 0.1556 0.0000
vt 0.8969 0.1628 0.0000
vt 0.8969 0.1604 0.0000
vt 0.8700 0.1604 0.0000
vt 0.8700 0.1628 0.0000
vt 0.8434 0.1604 0.0000
vt 0.8434 0.1628 0.0000
vt 0.8434 0.1652 0.0000
vt 0.8700 0.1652 0.0000
vt 0.8969 0.1652 0.0000
vt 0.8969 0.1580 0.0000
vt 0.8700 0.1580 0.0000
vt 0.8434 0.1580 0.0000
vt 0.9517 0.1580 0.0000
vt 0.9517 0.1556 0.0000
vt 0.9241 0.1556 0.0000
vt 0.9241 0.1580 0.0000
vt 0.9241 0.1604 0.0000
vt 0.9517 0.1604 0.0000
vt 0.9517 0.1628 0.0000
vt 0.9241 0.1628 0.0000
vt 0.9241 0.1652 0.0000
vt 0.9517 0.1652 0.0000
vt 0.8969 0.1484 0.0000
vt 0.8700 0.1484 0.0000
vt 0.8434 0.1484 0.0000
vt 0.9517 0.1484 0.0000
vt 0.9517 0.1460 0.0000
vt 0.9242 0.1460 0.0000
vt 0.9242 0.1484 0.0000
vt 0.9242 0.1508 0.0000
vt 0.9517 0.1508 0.0000
vt 0.9517 0.1532 0.0000
vt 0.9241 0.1532 0.0000
vt 0.8168 0.1460 0.0000
vt 0.8168 0.1484 0.0000
vt 0.7576 0.1460 0.0000
vt 0.7576 0.1484 0.0000
vt 0.7576 0.1508 0.0000
vt 0.8168 0.1508 0.0000
vt 0.8168 0.1532 0.0000
vt 0.7576 0.1532 0.0000
vt 0.7576 0.1556 0.0000
vt 0.8168 0.1556 0.0000
vt 0.2576 0.8825 0.0000
vt 0.2555 0.8814 0.0000
vt 0.2534 0.8803 0.0000
vt 0.2607 0.8284 0.0000
vt 0.2630 0.8291 0.0000
vt 0.2652 0.8297 0.0000
vt 0.2617 0.8847 0.0000
vt 0.2477 0.9015 0.0000
vt 0.2597 0.8836 0.0000
vt 0.2675 0.8304 0.0000
vt 0.2698 0.8310 0.0000
vt 0.1918 0.9322 0.0000
vt 0.1913 0.9299 0.0000
vt 0.1908 0.9276 0.0000
vt 0.1928 0.9367 0.0000
vt 0.1923 0.9345 0.0000
vt 0.2135 0.9276 0.0000
vt 0.2321 0.9164 0.0000
vt 0.1898 0.9230 0.0000
vt 0.1893 0.9208 0.0000
vt 0.1888 0.9185 0.0000
vt 0.1903 0.9253 0.0000
vt 0.2095 0.9191 0.0000
vt 0.2264 0.9090 0.0000
vt 0.2405 0.8955 0.0000
vt 0.1040 0.4676 0.0000
vt 0.1055 0.4658 0.0000
vt 0.1069 0.4639 0.0000
vt 0.1012 0.4713 0.0000
vt 0.0870 0.4546 0.0000
vt 0.1026 0.4695 0.0000
vt 0.1213 0.4807 0.0000
vt 0.1424 0.4876 0.0000
vt 0.0751 0.4367 0.0000
vt 0.0673 0.3834 0.0000
vt 0.0834 0.4323 0.0000
vt 0.0763 0.3808 0.0000
vt 0.0942 0.4486 0.0000
vt 0.0927 0.4824 0.0000
vt 0.0941 0.4806 0.0000
vt 0.0955 0.4787 0.0000
vt 0.0898 0.4861 0.0000
vt 0.0709 0.4681 0.0000
vt 0.0727 0.4666 0.0000
vt 0.0912 0.4843 0.0000
vt 0.1133 0.4976 0.0000
vt 0.1124 0.4997 0.0000
vt 0.1378 0.5081 0.0000
vt 0.1383 0.5058 0.0000
vt 0.0585 0.4453 0.0000
vt 0.0564 0.4464 0.0000
vt 0.0469 0.3893 0.0000
vt 0.0492 0.3887 0.0000
vt 0.0668 0.4410 0.0000
vt 0.0582 0.3861 0.0000
vt 0.0799 0.4606 0.0000
vt 0.2742 0.8911 0.0000
vt 0.2721 0.8901 0.0000
vt 0.2700 0.8890 0.0000
vt 0.2788 0.8336 0.0000
vt 0.2811 0.8343 0.0000
vt 0.2833 0.8350 0.0000
vt 0.2783 0.8933 0.0000
vt 0.2638 0.9150 0.0000
vt 0.2620 0.9135 0.0000
vt 0.2762 0.8922 0.0000
vt 0.2856 0.8356 0.0000
vt 0.2879 0.8363 0.0000
vt 0.1959 0.9504 0.0000
vt 0.1954 0.9481 0.0000
vt 0.1949 0.9459 0.0000
vt 0.1969 0.9550 0.0000
vt 0.1964 0.9527 0.0000
vt 0.2214 0.9445 0.0000
vt 0.2224 0.9466 0.0000
vt 0.2449 0.9331 0.0000
vt 0.2435 0.9312 0.0000
vt 0.1939 0.9413 0.0000
vt 0.1933 0.9390 0.0000
vt 0.2174 0.9360 0.0000
vt 0.2378 0.9238 0.0000
vt 0.2549 0.9075 0.0000
vt 0.7466 0.0232 0.0000
vt 0.7984 0.0232 0.0000
vt 0.8167 0.0232 0.0000
vt 0.7984 0.0136 0.0000
vt 0.7466 0.0136 0.0000
vt 0.7466 0.0112 0.0000
vt 0.7984 0.0112 0.0000
vt 0.8167 0.0112 0.0000
vt 0.8167 0.0136 0.0000
vt 0.8535 0.0136 0.0000
vt 0.8535 0.0112 0.0000
vt 0.8726 0.0112 0.0000
vt 0.8726 0.0136 0.0000
vt 0.8918 0.0112 0.0000
vt 0.8918 0.0136 0.0000
vt 0.8350 0.0112 0.0000
vt 0.8350 0.0136 0.0000
vt 0.8350 0.0160 0.0000
vt 0.8350 0.0184 0.0000
vt 0.8350 0.0208 0.0000
vt 0.7466 0.0424 0.0000
vt 0.7984 0.0424 0.0000
vt 0.8167 0.0424 0.0000
vt 0.7466 0.0328 0.0000
vt 0.7984 0.0328 0.0000
vt 0.8167 0.0328 0.0000
vt 0.8535 0.0328 0.0000
vt 0.8726 0.0328 0.0000
vt 0.8918 0.0328 0.0000
vt 0.8350 0.0304 0.0000
vt 0.8350 0.0328 0.0000
vt 0.8350 0.0352 0.0000
vt 0.8350 0.0376 0.0000
vt 0.8350 0.0400 0.0000
vt 0.8969 0.1389 0.0000
vt 0.8700 0.1388 0.0000
vt 0.8434 0.1388 0.0000
vt 0.9517 0.1389 0.0000
vt 0.9517 0.1365 0.0000
vt 0.9242 0.1365 0.0000
vt 0.9242 0.1389 0.0000
vt 0.9242 0.1412 0.0000
vt 0.9517 0.1412 0.0000
vt 0.9517 0.1436 0.0000
vt 0.9242 0.1436 0.0000
vt 0.8969 0.1293 0.0000
vt 0.8969 0.1269 0.0000
vt 0.8700 0.1269 0.0000
vt 0.8700 0.1293 0.0000
vt 0.8434 0.1269 0.0000
vt 0.8434 0.1293 0.0000
vt 0.9517 0.1293 0.0000
vt 0.9517 0.1269 0.0000
vt 0.9242 0.1269 0.0000
vt 0.9242 0.1293 0.0000
vt 0.9242 0.1317 0.0000
vt 0.9517 0.1317 0.0000
vt 0.9517 0.1341 0.0000
vt 0.9242 0.1341 0.0000
vt 0.8168 0.1269 0.0000
vt 0.8168 0.1293 0.0000
vt 0.7576 0.1269 0.0000
vt 0.7576 0.1293 0.0000
vt 0.7576 0.1317 0.0000
vt 0.8168 0.1317 0.0000
vt 0.8168 0.1341 0.0000
vt 0.7576 0.1341 0.0000
vt 0.7576 0.1365 0.0000
vt 0.8168 0.1365 0.0000
vt 0.8168 0.1388 0.0000
vt 0.7576 0.1388 0.0000
vt 0.7576 0.1412 0.0000
vt 0.8168 0.1412 0.0000
vt 0.8168 0.1436 0.0000
vt 0.7576 0.1436 0.0000
vt 0.8535 0.0424 0.0000
vt 0.8726 0.0424 0.0000
vt 0.8918 0.0424 0.0000
vt 0.8918 0.0448 0.0000
vt 0.8726 0.0448 0.0000
vt 0.8535 0.0448 0.0000
vt 0.8350 0.0424 0.0000
vt 0.8350 0.0448 0.0000
vt 0.8350 0.0472 0.0000
vt 0.8535 0.0472 0.0000
vt 0.8535 0.0496 0.0000
vt 0.8350 0.0496 0.0000
vt 0.8535 0.0232 0.0000
vt 0.8726 0.0232 0.0000
vt 0.8918 0.0232 0.0000
vt 0.8350 0.0232 0.0000
vt 0.8350 0.0256 0.0000
vt 0.8350 0.0280 0.0000
vt 0.2659 0.8868 0.0000
vt 0.2638 0.8857 0.0000
vt 0.2720 0.8317 0.0000
vt 0.2743 0.8323 0.0000
vt 0.2679 0.8879 0.0000
vt 0.2765 0.8330 0.0000
vt 0.0983 0.4750 0.0000
vt 0.0998 0.4732 0.0000
vt 0.0969 0.4769 0.0000
vt 0.1173 0.4891 0.0000
vt 0.1404 0.4967 0.0000
vt 0.1097 0.4602 0.0000
vt 0.1111 0.4583 0.0000
vt 0.1126 0.4565 0.0000
vt 0.1282 0.4658 0.0000
vt 0.1272 0.4679 0.0000
vt 0.1262 0.4701 0.0000
vt 0.1083 0.4620 0.0000
vt 0.1252 0.4722 0.0000
vt 0.1444 0.4784 0.0000
vt 0.1449 0.4761 0.0000
vt 0.2493 0.8782 0.0000
vt 0.2472 0.8771 0.0000
vt 0.2451 0.8760 0.0000
vt 0.2517 0.8258 0.0000
vt 0.2539 0.8264 0.0000
vt 0.2562 0.8271 0.0000
vt 0.2514 0.8793 0.0000
vt 0.2584 0.8277 0.0000
vt 0.8168 0.1580 0.0000
vt 0.7576 0.1580 0.0000
vt 0.7576 0.1604 0.0000
vt 0.8168 0.1604 0.0000
vt 0.8168 0.1628 0.0000
vt 0.7576 0.1628 0.0000
vt 0.7576 0.1652 0.0000
vt 0.8168 0.1652 0.0000
vt 0.1454 0.4739 0.0000
vt 0.1459 0.4716 0.0000
vt 0.8726 0.0472 0.0000
vt 0.8918 0.0472 0.0000
vt 0.8918 0.0496 0.0000
vt 0.8726 0.0496 0.0000
vt 0.1944 0.9436 0.0000
# 918 texture coords

o Object001
g Object001
usemtl pruerta_uno_01___Default
s off
f 1/1/1 2/2/2 3/3/2 4/4/3 
f 3/3/2 5/5/2 6/6/4 4/4/3 
f 6/6/4 7/7/5 8/8/6 4/4/3 
f 8/8/6 9/9/7 1/1/1 4/4/3 
f 10/10/8 11/11/8 12/12/8 13/13/8 
f 12/12/8 14/14/8 15/15/2 13/13/8 
f 15/15/2 16/16/2 17/17/8 13/13/8 
f 17/17/8 18/18/2 10/10/8 13/13/8 
f 19/19/9 20/20/10 21/21/11 22/22/12 
f 21/21/11 23/23/11 24/24/9 22/22/12 
f 24/24/9 25/25/13 26/26/14 22/22/12 
f 26/26/14 27/27/14 19/19/9 22/22/12 
f 28/28/9 29/29/10 30/30/15 31/31/16 
f 30/30/15 9/32/17 8/33/18 31/31/16 
f 8/33/18 7/34/19 32/35/20 31/31/16 
f 32/35/20 33/36/13 28/28/9 31/31/16 
f 34/37/21 35/38/22 36/39/23 37/40/24 
f 36/39/23 38/41/22 39/42/21 37/40/24 
f 39/42/21 40/43/25 41/44/26 37/40/24 
f 41/44/26 42/45/25 34/37/21 37/40/24 
f 43/46/24 44/47/23 45/48/22 46/49/21 
f 45/48/22 47/50/23 48/51/24 46/49/21 
f 48/51/24 49/52/25 50/53/25 46/49/21 
f 50/53/25 51/54/26 43/46/24 46/49/21 
f 52/55/12 53/56/11 54/57/10 55/58/9 
f 54/57/10 56/59/11 57/60/9 55/58/9 
f 57/60/9 58/61/14 59/62/14 55/58/9 
f 59/62/14 60/63/13 52/55/12 55/58/9 
f 61/64/27 62/65/28 63/66/28 64/67/27 
f 63/66/28 65/68/28 66/69/27 64/67/27 
f 66/69/27 67/70/29 68/71/29 64/67/27 
f 68/71/29 69/72/29 61/64/27 64/67/27 
f 70/73/27 71/74/28 72/75/30 73/76/31 
f 73/76/31 72/75/30 74/77/32 75/78/33 
f 75/78/33 76/79/34 77/80/35 73/76/31 
f 77/80/35 78/81/29 70/73/27 73/76/31 
f 79/82/12 80/83/11 81/84/10 82/85/9 
f 81/84/10 83/86/11 84/87/12 82/85/9 
f 84/87/12 85/88/13 86/89/13 82/85/9 
f 86/89/13 87/90/13 79/82/12 82/85/9 
f 88/91/27 89/92/28 90/93/28 91/94/27 
f 90/93/28 92/95/28 93/96/27 91/94/27 
f 93/96/27 94/97/29 95/98/29 91/94/27 
f 95/98/29 96/99/29 88/91/27 91/94/27 
f 97/100/27 98/101/28 99/102/28 100/103/27 
f 99/102/28 101/104/28 102/105/27 100/103/27 
f 102/105/27 103/106/29 104/107/29 100/103/27 
f 104/107/29 105/108/29 97/100/27 100/103/27 
f 106/109/36 107/110/37 108/111/37 109/112/36 
f 108/111/37 110/113/36 111/114/36 109/112/36 
f 111/114/36 112/115/36 113/116/37 109/112/36 
f 113/116/37 114/117/36 106/109/36 109/112/36 
f 115/118/37 116/119/37 117/120/37 118/121/37 
f 117/120/37 119/122/37 120/123/37 118/121/37 
f 120/123/37 121/124/36 122/125/37 118/121/37 
f 122/125/37 123/126/37 115/118/37 118/121/37 
f 124/127/8 125/128/8 126/129/2 127/130/2 
f 127/130/2 128/131/2 129/132/38 124/127/8 
f 129/132/38 130/133/2 131/134/8 124/127/8 
f 131/134/8 132/135/8 125/128/8 124/127/8 
f 133/136/8 134/137/8 135/138/2 136/139/8 
f 135/138/2 137/140/2 138/141/38 136/139/8 
f 138/141/38 139/142/38 140/143/8 136/139/8 
f 140/143/8 141/144/8 133/136/8 136/139/8 
f 142/145/39 143/146/40 144/147/2 145/148/2 
f 145/148/2 146/149/2 147/150/41 142/145/39 
f 147/150/41 76/151/42 75/152/43 142/145/39 
f 75/152/43 74/153/44 143/146/40 142/145/39 
f 148/154/38 149/155/2 150/156/2 151/157/2 
f 151/157/2 152/158/38 153/159/2 148/154/38 
f 153/159/2 154/160/2 155/161/2 148/154/38 
f 155/161/2 156/162/2 149/155/2 148/154/38 
f 157/163/2 158/164/2 159/165/2 160/166/38 
f 159/165/2 161/167/2 162/168/38 160/166/38 
f 162/168/38 163/169/38 164/170/38 160/166/38 
f 164/170/38 165/171/38 157/163/2 160/166/38 
f 166/172/45 167/173/36 168/174/36 169/175/46 
f 168/174/36 170/176/36 171/177/47 169/175/46 
f 171/177/47 172/178/48 173/179/49 169/175/46 
f 173/179/49 174/180/50 166/172/45 169/175/46 
f 175/181/37 176/182/36 177/183/37 178/184/37 
f 177/183/37 179/185/37 180/186/36 178/184/37 
f 180/186/36 181/187/36 182/188/36 178/184/37 
f 182/188/36 183/189/36 175/181/37 178/184/37 
f 184/190/21 185/191/22 186/192/23 187/193/24 
f 186/192/23 188/194/22 189/195/21 187/193/24 
f 189/195/21 190/196/25 191/197/26 187/193/24 
f 191/197/26 192/198/25 184/190/21 187/193/24 
f 189/195/21 188/194/22 193/199/22 194/200/21 
f 193/199/22 195/201/23 196/202/24 194/200/21 
f 196/202/24 197/203/26 198/204/25 194/200/21 
f 198/204/25 190/196/25 189/195/21 194/200/21 
f 199/205/51 200/206/52 201/207/53 202/208/51 
f 201/207/53 203/209/53 204/210/51 202/208/51 
f 204/210/51 195/201/23 193/199/22 202/208/51 
f 193/199/22 188/194/22 199/205/51 202/208/51 
f 204/210/51 203/209/53 205/211/54 206/212/55 
f 205/211/54 207/213/56 208/214/57 206/212/55 
f 208/214/57 209/215/58 210/216/59 206/212/55 
f 210/216/59 195/201/23 204/210/51 206/212/55 
f 48/51/24 47/50/23 211/217/23 212/218/24 
f 211/217/23 185/191/22 184/190/21 212/218/24 
f 184/190/21 192/198/25 213/219/26 212/218/24 
f 213/219/26 49/52/25 48/51/24 212/218/24 
f 214/220/51 215/221/53 216/222/52 217/223/51 
f 216/222/52 218/224/52 219/225/51 217/223/51 
f 219/225/51 185/191/22 211/217/23 217/223/51 
f 211/217/23 47/50/23 214/220/51 217/223/51 
f 219/225/51 218/224/52 220/226/52 221/227/51 
f 220/226/52 200/206/52 199/205/51 221/227/51 
f 199/205/51 188/194/22 186/192/23 221/227/51 
f 186/192/23 185/191/22 219/225/51 221/227/51 
f 222/228/60 49/52/25 213/219/26 223/229/61 
f 213/219/26 192/198/25 224/230/60 223/229/61 
f 224/230/60 225/231/62 226/232/63 223/229/61 
f 226/232/63 227/233/62 222/228/60 223/229/61 
f 224/230/60 192/198/25 191/197/26 228/234/61 
f 191/197/26 190/196/25 229/235/60 228/234/61 
f 229/235/60 230/236/62 231/237/63 228/234/61 
f 231/237/63 225/231/62 224/230/60 228/234/61 
f 180/186/36 179/185/37 232/238/64 233/239/64 
f 233/239/64 232/238/64 234/240/64 235/241/64 
f 235/241/64 236/242/64 237/243/65 233/239/64 
f 237/243/65 181/187/36 180/186/36 233/239/64 
f 238/244/37 112/115/36 239/245/65 240/246/64 
f 240/246/64 239/245/65 241/247/64 242/248/64 
f 242/248/64 234/240/64 232/238/64 240/246/64 
f 232/238/64 179/185/37 238/244/37 240/246/64 
f 243/249/36 244/250/37 245/251/36 246/252/37 
f 245/251/36 176/182/36 175/181/37 246/252/37 
f 175/181/37 183/189/36 247/253/36 246/252/37 
f 247/253/36 248/254/37 243/249/36 246/252/37 
f 249/255/37 250/256/36 251/257/36 252/258/36 
f 251/257/36 114/117/36 253/259/37 252/258/36 
f 253/259/37 176/182/36 245/251/36 252/258/36 
f 245/251/36 244/250/37 249/255/37 252/258/36 
f 253/259/37 114/117/36 113/116/37 254/260/37 
f 113/116/37 112/115/36 238/244/37 254/260/37 
f 238/244/37 179/185/37 177/183/37 254/260/37 
f 177/183/37 176/182/36 253/259/37 254/260/37 
f 255/261/66 256/262/37 257/263/36 258/264/67 
f 257/263/36 167/173/36 166/172/45 258/264/67 
f 166/172/45 174/180/50 259/265/68 258/264/67 
f 259/265/68 260/266/69 255/261/66 258/264/67 
f 261/267/37 248/254/37 247/253/36 262/268/37 
f 247/253/36 183/189/36 263/269/37 262/268/37 
f 263/269/37 167/173/36 257/263/36 262/268/37 
f 257/263/36 256/262/37 261/267/37 262/268/37 
f 263/269/37 183/189/36 182/188/36 264/270/37 
f 182/188/36 181/187/36 265/271/36 264/270/37 
f 265/271/36 170/176/36 168/174/36 264/270/37 
f 168/174/36 167/173/36 263/269/37 264/270/37 
f 153/159/2 152/158/38 266/272/2 267/273/2 
f 266/272/2 158/164/2 157/163/2 267/273/2 
f 157/163/2 165/171/38 268/274/2 267/273/2 
f 268/274/2 154/160/2 153/159/2 267/273/2 
f 269/275/2 130/133/2 270/276/2 271/277/2 
f 270/276/2 18/18/2 272/278/2 271/277/2 
f 272/278/2 158/164/2 266/272/2 271/277/2 
f 266/272/2 152/158/38 269/275/2 271/277/2 
f 272/278/2 18/18/2 17/17/8 273/279/2 
f 17/17/8 16/16/2 274/280/38 273/279/2 
f 274/280/38 161/167/2 159/165/2 273/279/2 
f 159/165/2 158/164/2 272/278/2 273/279/2 
f 275/281/2 276/282/2 132/135/8 131/134/8 
f 131/134/8 130/133/2 269/275/2 275/281/2 
f 269/275/2 152/158/38 151/157/2 275/281/2 
f 151/157/2 150/156/2 276/282/2 275/281/2 
f 277/283/2 278/284/2 156/162/2 155/161/2 
f 155/161/2 154/160/2 279/285/2 277/283/2 
f 279/285/2 146/149/2 145/148/2 277/283/2 
f 145/148/2 144/147/2 278/284/2 277/283/2 
f 280/286/8 281/287/8 282/288/8 283/289/8 
f 282/288/8 134/137/8 133/136/8 283/289/8 
f 133/136/8 141/144/8 284/290/8 283/289/8 
f 284/290/8 285/291/38 280/286/8 283/289/8 
f 286/292/70 287/293/71 288/294/72 289/295/73 
f 288/294/72 209/296/74 290/297/75 289/295/73 
f 290/297/75 134/137/8 282/288/8 289/295/73 
f 282/288/8 281/287/8 286/292/70 289/295/73 
f 290/297/75 209/296/74 208/298/76 291/299/77 
f 208/298/76 207/300/78 292/301/79 291/299/77 
f 292/301/79 137/140/2 135/138/2 291/299/77 
f 135/138/2 134/137/8 290/297/75 291/299/77 
f 293/302/2 294/303/2 295/304/2 296/305/2 
f 296/305/2 285/291/38 297/306/38 293/302/2 
f 297/306/38 128/131/2 127/130/2 293/302/2 
f 127/130/2 126/129/2 294/303/2 293/302/2 
f 120/123/37 119/122/37 298/307/37 299/308/64 
f 299/308/64 298/307/37 300/309/64 301/310/64 
f 301/310/64 302/311/64 303/312/65 299/308/64 
f 303/312/65 121/124/36 120/123/37 299/308/64 
f 304/313/80 305/314/81 306/315/82 307/316/83 
f 307/316/83 306/315/82 308/317/84 309/318/85 
f 309/318/85 300/309/64 298/307/37 307/316/83 
f 298/307/37 119/122/37 304/313/80 307/316/83 
f 310/319/64 311/320/37 312/321/36 313/322/36 
f 312/321/36 116/119/37 115/118/37 313/322/36 
f 115/118/37 123/126/37 314/323/37 313/322/36 
f 314/323/37 315/324/37 310/319/64 313/322/36 
f 316/325/86 317/326/87 318/327/88 319/328/89 
f 318/327/88 320/329/90 321/330/91 319/328/89 
f 321/330/91 116/119/37 312/321/36 319/328/89 
f 312/321/36 311/320/37 316/325/86 319/328/89 
f 321/330/91 320/329/90 322/331/92 323/332/93 
f 322/331/92 305/314/81 304/313/80 323/332/93 
f 304/313/80 119/122/37 117/120/37 323/332/93 
f 117/120/37 116/119/37 321/330/91 323/332/93 
f 324/333/37 325/334/37 326/335/37 327/336/37 
f 326/335/37 107/110/37 106/109/36 327/336/37 
f 106/109/36 114/117/36 251/257/36 327/336/37 
f 251/257/36 250/256/36 324/333/37 327/336/37 
f 328/337/37 315/324/37 314/323/37 329/338/37 
f 314/323/37 123/126/37 330/339/37 329/338/37 
f 330/339/37 107/110/37 326/335/37 329/338/37 
f 326/335/37 325/334/37 328/337/37 329/338/37 
f 330/339/37 123/126/37 122/125/37 331/340/36 
f 122/125/37 121/124/36 332/341/36 331/340/36 
f 332/341/36 110/113/36 108/111/37 331/340/36 
f 108/111/37 107/110/37 330/339/37 331/340/36 
f 93/96/27 92/95/28 333/342/28 334/343/27 
f 333/342/28 98/101/28 97/100/27 334/343/27 
f 97/100/27 105/108/29 335/344/29 334/343/27 
f 335/344/29 94/97/29 93/96/27 334/343/27 
f 336/345/94 337/346/95 338/347/96 339/348/97 
f 339/348/97 89/92/28 88/91/27 336/345/94 
f 88/91/27 96/99/29 340/349/98 336/345/94 
f 340/349/98 172/350/99 337/346/95 336/345/94 
f 259/351/100 174/352/101 341/353/102 342/354/103 
f 341/353/102 80/83/11 79/82/12 342/354/103 
f 79/82/12 87/90/13 343/355/104 342/354/103 
f 343/355/104 260/356/105 259/351/100 342/354/103 
f 173/357/106 172/350/99 340/349/98 344/358/107 
f 340/349/98 96/99/29 345/359/108 344/358/107 
f 345/359/108 80/83/11 341/353/102 344/358/107 
f 341/353/102 174/352/101 173/357/106 344/358/107 
f 345/359/108 96/99/29 95/98/29 346/360/109 
f 95/98/29 94/97/29 347/361/108 346/360/109 
f 347/361/108 83/86/11 81/84/10 346/360/109 
f 81/84/10 80/83/11 345/359/108 346/360/109 
f 102/105/27 101/104/28 348/362/28 349/363/27 
f 348/362/28 62/65/28 61/64/27 349/363/27 
f 61/64/27 69/72/29 350/364/29 349/363/27 
f 350/364/29 103/106/29 102/105/27 349/363/27 
f 24/24/9 23/23/11 351/365/10 352/366/9 
f 351/365/10 53/56/11 52/55/12 352/366/9 
f 52/55/12 60/63/13 353/367/13 352/366/9 
f 353/367/13 25/25/13 24/24/9 352/366/9 
f 354/368/108 103/106/29 350/364/29 355/369/109 
f 350/364/29 69/72/29 356/370/108 355/369/109 
f 356/370/108 53/56/11 351/365/10 355/369/109 
f 351/365/10 23/23/11 354/368/108 355/369/109 
f 356/370/108 69/72/29 68/71/29 357/371/109 
f 68/71/29 67/70/29 358/372/108 357/371/109 
f 358/372/108 56/59/11 54/57/10 357/371/109 
f 54/57/10 53/56/11 356/370/108 357/371/109 
f 39/42/21 38/41/22 359/373/22 360/374/21 
f 359/373/22 44/47/23 43/46/24 360/374/21 
f 43/46/24 51/54/26 361/375/25 360/374/21 
f 361/375/25 40/43/25 39/42/21 360/374/21 
f 362/376/51 363/377/53 364/378/52 365/379/51 
f 364/378/52 366/380/52 367/381/51 365/379/51 
f 367/381/51 44/47/23 359/373/22 365/379/51 
f 359/373/22 38/41/22 362/376/51 365/379/51 
f 367/381/51 366/380/52 368/382/53 369/383/51 
f 368/382/53 215/221/53 214/220/51 369/383/51 
f 214/220/51 47/50/23 45/48/22 369/383/51 
f 45/48/22 44/47/23 367/381/51 369/383/51 
f 322/384/110 320/385/111 370/386/112 371/387/113 
f 370/386/112 35/38/22 34/37/21 371/387/113 
f 34/37/21 42/45/25 372/388/114 371/387/113 
f 372/388/114 305/389/115 322/384/110 371/387/113 
f 318/390/116 317/391/117 373/392/118 374/393/119 
f 373/392/118 375/394/53 376/395/51 374/393/119 
f 376/395/51 35/38/22 370/386/112 374/393/119 
f 370/386/112 320/385/111 318/390/116 374/393/119 
f 376/395/51 375/394/53 377/396/53 378/397/51 
f 377/396/53 363/377/53 362/376/51 378/397/51 
f 362/376/51 38/41/22 36/39/23 378/397/51 
f 36/39/23 35/38/22 376/395/51 378/397/51 
f 306/398/120 305/389/115 372/388/114 379/399/121 
f 372/388/114 42/45/25 380/400/60 379/399/121 
f 380/400/60 381/401/62 382/402/122 379/399/121 
f 382/402/122 308/403/123 306/398/120 379/399/121 
f 380/400/60 42/45/25 41/44/26 383/404/61 
f 41/44/26 40/43/25 384/405/61 383/404/61 
f 384/405/61 385/406/63 386/407/63 383/404/61 
f 386/407/63 381/401/62 380/400/60 383/404/61 
f 384/405/61 40/43/25 361/375/25 387/408/60 
f 361/375/25 51/54/26 388/409/61 387/408/60 
f 388/409/61 389/410/63 390/411/62 387/408/60 
f 390/411/62 385/406/63 384/405/61 387/408/60 
f 388/409/61 51/54/26 50/53/25 391/412/60 
f 50/53/25 49/52/25 222/228/60 391/412/60 
f 222/228/60 227/233/62 392/413/62 391/412/60 
f 392/413/62 389/410/63 388/409/61 391/412/60 
f 57/60/9 56/59/11 393/414/11 394/415/12 
f 393/414/11 29/29/10 28/28/9 394/415/12 
f 28/28/9 33/36/13 395/416/13 394/415/12 
f 395/416/13 58/61/14 57/60/9 394/415/12 
f 358/372/108 67/70/29 396/417/29 397/418/108 
f 396/417/29 78/81/29 398/419/109 397/418/108 
f 398/419/109 29/29/10 393/414/11 397/418/108 
f 393/414/11 56/59/11 358/372/108 397/418/108 
f 398/419/109 78/81/29 77/80/35 399/420/124 
f 77/80/35 76/79/34 400/421/125 399/420/124 
f 400/421/125 9/32/17 30/30/15 399/420/124 
f 30/30/15 29/29/10 398/419/109 399/420/124 
f 347/361/108 94/97/29 335/344/29 401/422/109 
f 335/344/29 105/108/29 402/423/109 401/422/109 
f 402/423/109 20/20/10 403/424/10 401/422/109 
f 403/424/10 83/86/11 347/361/108 401/422/109 
f 402/423/109 105/108/29 104/107/29 404/425/108 
f 104/107/29 103/106/29 354/368/108 404/425/108 
f 354/368/108 23/23/11 21/21/11 404/425/108 
f 21/21/11 20/20/10 402/423/109 404/425/108 
f 111/114/36 110/113/36 405/426/65 406/427/65 
f 406/427/65 405/426/65 407/428/64 408/429/64 
f 408/429/64 241/247/64 239/245/65 406/427/65 
f 239/245/65 112/115/36 111/114/36 406/427/65 
f 332/341/36 121/124/36 303/312/65 409/430/65 
f 409/430/65 303/312/65 302/311/64 410/431/64 
f 410/431/64 407/428/64 405/426/65 409/430/65 
f 405/426/65 110/113/36 332/341/36 409/430/65 
f 129/132/38 128/131/2 411/432/2 412/433/2 
f 411/432/2 11/11/8 10/10/8 412/433/2 
f 10/10/8 18/18/2 270/276/2 412/433/2 
f 270/276/2 130/133/2 129/132/38 412/433/2 
f 297/306/38 285/291/38 284/290/8 413/434/38 
f 284/290/8 141/144/8 414/435/2 413/434/38 
f 414/435/2 11/11/8 411/432/2 413/434/38 
f 411/432/2 128/131/2 297/306/38 413/434/38 
f 414/435/2 141/144/8 140/143/8 415/436/2 
f 140/143/8 139/142/38 416/437/2 415/436/2 
f 416/437/2 14/14/8 12/12/8 415/436/2 
f 12/12/8 11/11/8 414/435/2 415/436/2 
f 147/150/41 146/149/2 417/438/2 418/439/126 
f 417/438/2 2/2/2 1/1/1 418/439/126 
f 1/1/1 9/9/7 400/440/127 418/439/126 
f 400/440/127 76/151/42 147/150/41 418/439/126 
f 279/285/2 154/160/2 268/274/2 419/441/2 
f 268/274/2 165/171/38 420/442/2 419/441/2 
f 420/442/2 2/2/2 417/438/2 419/441/2 
f 417/438/2 146/149/2 279/285/2 419/441/2 
f 420/442/2 165/171/38 164/170/38 421/443/38 
f 164/170/38 163/169/38 422/444/38 421/443/38 
f 422/444/38 5/5/2 3/3/2 421/443/38 
f 3/3/2 2/2/2 420/442/2 421/443/38 
f 171/177/47 170/176/36 423/445/65 424/446/128 
f 424/446/128 423/445/65 425/447/64 426/448/129 
f 426/448/129 338/449/130 337/450/131 424/446/128 
f 337/450/131 172/178/48 171/177/47 424/446/128 
f 265/271/36 181/187/36 237/243/65 427/451/65 
f 427/451/65 237/243/65 236/242/64 428/452/64 
f 428/452/64 425/447/64 423/445/65 427/451/65 
f 423/445/65 170/176/36 265/271/36 427/451/65 
f 229/235/60 190/196/25 198/204/25 429/453/60 
f 198/204/25 197/203/26 430/454/61 429/453/60 
f 430/454/61 431/455/63 432/456/62 429/453/60 
f 432/456/62 230/236/62 229/235/60 429/453/60 
f 433/457/2 434/458/2 435/459/2 436/460/2 
f 436/460/2 281/287/8 280/286/8 433/457/2 
f 280/286/8 285/291/38 296/305/2 433/457/2 
f 296/305/2 295/304/2 434/458/2 433/457/2 
f 196/202/24 195/201/23 210/216/59 437/461/132 
f 210/216/59 209/215/58 288/462/133 437/461/132 
f 288/462/133 287/463/134 438/464/135 437/461/132 
f 438/464/135 197/203/26 196/202/24 437/461/132 
f 439/465/136 440/466/137 441/467/138 442/468/139 
f 442/468/139 287/293/71 286/292/70 439/465/136 
f 286/292/70 281/287/8 436/460/2 439/465/136 
f 436/460/2 435/459/2 440/466/137 439/465/136 
f 66/69/27 65/68/28 443/469/28 444/470/27 
f 443/469/28 71/74/28 70/73/27 444/470/27 
f 70/73/27 78/81/29 396/417/29 444/470/27 
f 396/417/29 67/70/29 66/69/27 444/470/27 
f 84/87/12 83/86/11 403/424/10 445/471/9 
f 403/424/10 20/20/10 19/19/9 445/471/9 
f 19/19/9 27/27/14 446/472/13 445/471/9 
f 446/472/13 85/88/13 84/87/12 445/471/9 
f 430/454/61 197/203/26 438/464/135 447/473/140 
f 438/464/135 287/463/134 442/474/141 447/473/140 
f 442/474/141 441/475/142 448/476/143 447/473/140 
f 448/476/143 431/455/63 430/454/61 447/473/140 
f 449/477/8 450/478/144 451/479/8 452/480/2 
f 451/479/8 453/481/2 454/482/2 452/480/2 
f 454/482/2 16/16/2 15/15/2 452/480/2 
f 15/15/2 14/14/8 449/477/8 452/480/2 
f 455/483/145 456/484/145 457/485/146 458/486/146 
f 457/485/146 27/487/14 26/488/14 458/486/146 
f 26/488/14 25/489/13 459/490/146 458/486/146 
f 459/490/146 460/491/145 455/483/145 458/486/146 
f 461/492/147 462/493/147 463/494/148 464/495/148 
f 463/494/148 465/496/149 466/497/149 464/495/148 
f 466/497/149 467/498/149 468/499/148 464/495/148 
f 468/499/148 469/500/147 461/492/147 464/495/148 
f 470/501/147 471/502/147 472/503/148 473/504/148 
f 472/503/148 474/505/149 475/506/149 473/504/148 
f 475/506/149 476/507/149 477/508/148 473/504/148 
f 477/508/148 478/509/147 470/501/147 473/504/148 
f 479/510/145 480/511/145 481/512/146 482/513/146 
f 481/512/146 60/514/13 59/515/14 482/513/146 
f 59/515/14 58/516/14 483/517/146 482/513/146 
f 483/517/146 484/518/145 479/510/145 482/513/146 
f 485/519/150 486/520/150 487/521/151 488/522/151 
f 487/521/151 489/523/152 490/524/152 488/522/151 
f 490/524/152 491/525/152 492/526/151 488/522/151 
f 492/526/151 493/527/150 485/519/150 488/522/151 
f 494/528/153 495/529/150 496/530/151 497/531/154 
f 496/530/151 498/532/152 499/533/155 497/531/154 
f 499/533/155 500/534/156 501/535/157 497/531/154 
f 497/531/154 501/535/157 502/536/158 494/528/153 
f 503/537/145 504/538/145 505/539/146 506/540/146 
f 505/539/146 87/541/13 86/542/13 506/540/146 
f 86/542/13 85/543/13 507/544/146 506/540/146 
f 507/544/146 508/545/145 503/537/145 506/540/146 
f 509/546/150 510/547/150 511/548/151 512/549/151 
f 511/548/151 513/550/152 514/551/152 512/549/151 
f 514/551/152 515/552/152 516/553/151 512/549/151 
f 516/553/151 517/554/150 509/546/150 512/549/151 
f 518/555/150 519/556/150 520/557/151 521/558/151 
f 520/557/151 522/559/152 523/560/152 521/558/151 
f 523/560/152 524/561/152 525/562/151 521/558/151 
f 525/562/151 526/563/150 518/555/150 521/558/151 
f 527/564/37 528/565/37 529/566/36 530/567/37 
f 529/566/36 531/568/36 532/569/36 530/567/37 
f 532/569/36 533/570/37 534/571/37 530/567/37 
f 534/571/37 535/572/36 527/564/37 530/567/37 
f 536/573/36 537/574/36 538/575/36 539/576/36 
f 538/575/36 540/577/64 541/578/64 539/576/36 
f 541/578/64 542/579/36 543/580/36 539/576/36 
f 543/580/36 544/581/37 536/573/36 539/576/36 
f 545/582/2 546/583/8 547/584/8 548/585/2 
f 548/585/2 549/586/2 550/587/2 545/582/2 
f 550/587/2 551/588/38 552/589/38 545/582/2 
f 552/589/38 553/590/38 546/583/8 545/582/2 
f 554/591/8 555/592/8 556/593/8 557/594/8 
f 557/594/8 558/595/8 559/596/8 554/591/8 
f 559/596/8 560/597/38 561/598/2 554/591/8 
f 561/598/2 562/599/38 555/592/8 554/591/8 
f 563/600/2 564/601/2 565/602/2 566/603/2 
f 565/602/2 567/604/2 568/605/2 566/603/2 
f 568/605/2 139/142/38 138/141/38 566/603/2 
f 138/141/38 137/140/2 563/600/2 566/603/2 
f 569/606/159 570/607/144 571/608/8 572/609/160 
f 572/609/160 502/610/161 501/611/162 569/606/159 
f 501/611/162 500/612/163 573/613/164 569/606/159 
f 573/613/164 574/614/38 570/607/144 569/606/159 
f 575/615/8 576/616/144 577/617/8 578/618/8 
f 578/618/8 579/619/8 580/620/8 575/615/8 
f 580/620/8 581/621/2 582/622/2 575/615/8 
f 582/622/2 583/623/38 576/616/144 575/615/8 
f 584/624/2 585/625/2 586/626/2 587/627/2 
f 586/626/2 588/628/2 589/629/38 587/627/2 
f 589/629/38 163/169/38 162/168/38 587/627/2 
f 162/168/38 161/167/2 584/624/2 587/627/2 
f 590/630/36 591/631/36 592/632/165 593/633/166 
f 592/632/165 594/634/167 595/635/168 593/633/166 
f 595/635/168 596/636/169 597/637/170 593/633/166 
f 597/637/170 598/638/36 590/630/36 593/633/166 
f 599/639/36 600/640/37 601/641/36 602/642/36 
f 601/641/36 603/643/36 604/644/37 602/642/36 
f 604/644/37 605/645/36 606/646/37 602/642/36 
f 606/646/37 607/647/36 599/639/36 602/642/36 
f 608/648/147 609/649/147 610/650/148 611/651/148 
f 610/650/148 612/652/149 613/653/149 611/651/148 
f 613/653/149 614/654/149 615/655/148 611/651/148 
f 615/655/148 616/656/147 608/648/147 611/651/148 
f 617/657/171 618/658/147 619/659/148 620/660/172 
f 619/659/148 621/661/149 622/662/173 620/660/172 
f 622/662/173 623/663/174 624/664/175 620/660/172 
f 624/664/175 625/665/176 617/657/171 620/660/172 
f 626/666/147 616/656/147 615/655/148 627/667/148 
f 615/655/148 614/654/149 628/668/149 627/667/148 
f 628/668/149 621/661/149 619/659/148 627/667/148 
f 619/659/148 618/658/147 626/666/147 627/667/148 
f 201/669/53 200/670/52 629/671/177 630/672/177 
f 629/671/177 616/656/147 626/666/147 630/672/177 
f 626/666/147 618/658/147 631/673/177 630/672/177 
f 631/673/177 203/674/53 201/669/53 630/672/177 
f 205/675/54 203/674/53 631/673/177 632/676/178 
f 631/673/177 618/658/147 617/657/171 632/676/178 
f 617/657/171 625/665/176 633/677/179 632/676/178 
f 633/677/179 207/678/56 205/675/54 632/676/178 
f 634/679/147 478/509/147 477/508/148 635/680/148 
f 477/508/148 476/507/149 636/681/149 635/680/148 
f 636/681/149 612/652/149 610/650/148 635/680/148 
f 610/650/148 609/649/147 634/679/147 635/680/148 
f 216/682/52 215/683/53 637/684/177 638/685/177 
f 637/684/177 478/509/147 634/679/147 638/685/177 
f 634/679/147 609/649/147 639/686/177 638/685/177 
f 639/686/177 218/687/52 216/682/52 638/685/177 
f 220/688/52 218/687/52 639/686/177 640/689/177 
f 639/686/177 609/649/147 608/648/147 640/689/177 
f 608/648/147 616/656/147 629/671/177 640/689/177 
f 629/671/177 200/670/52 220/688/52 640/689/177 
f 636/681/149 476/507/149 641/690/180 642/691/181 
f 641/690/180 643/692/182 644/693/183 642/691/181 
f 644/693/183 645/694/182 646/695/180 642/691/181 
f 646/695/180 612/652/149 636/681/149 642/691/181 
f 613/653/149 612/652/149 646/695/180 647/696/181 
f 646/695/180 645/694/182 648/697/183 647/696/181 
f 648/697/183 649/698/183 650/699/181 647/696/181 
f 650/699/181 614/654/149 613/653/149 647/696/181 
f 651/700/37 607/647/36 606/646/37 652/701/37 
f 606/646/37 605/645/36 653/702/37 652/701/37 
f 653/702/37 654/703/37 655/704/37 652/701/37 
f 652/701/37 655/704/37 656/705/37 651/700/37 
f 657/706/37 533/570/37 658/707/36 659/708/36 
f 658/707/36 607/647/36 651/700/37 659/708/36 
f 651/700/37 656/705/37 660/709/37 659/708/36 
f 659/708/36 660/709/37 661/710/37 657/706/37 
f 662/711/37 244/250/37 243/249/36 663/712/36 
f 243/249/36 248/254/37 664/713/36 663/712/36 
f 664/713/36 603/643/36 601/641/36 663/712/36 
f 601/641/36 600/640/37 662/711/37 663/712/36 
f 665/714/36 250/256/36 249/255/37 666/715/37 
f 249/255/37 244/250/37 662/711/37 666/715/37 
f 662/711/37 600/640/37 667/716/37 666/715/37 
f 667/716/37 531/568/36 665/714/36 666/715/37 
f 532/569/36 531/568/36 667/716/37 668/717/37 
f 667/716/37 600/640/37 599/639/36 668/717/37 
f 599/639/36 607/647/36 658/707/36 668/717/37 
f 658/707/36 533/570/37 532/569/36 668/717/37 
f 669/718/36 256/262/37 255/261/66 670/719/184 
f 255/261/66 260/266/69 671/720/185 670/719/184 
f 671/720/185 594/634/167 592/632/165 670/719/184 
f 592/632/165 591/631/36 669/718/36 670/719/184 
f 664/713/36 248/254/37 261/267/37 672/721/37 
f 261/267/37 256/262/37 669/718/36 672/721/37 
f 669/718/36 591/631/36 673/722/36 672/721/37 
f 673/722/36 603/643/36 664/713/36 672/721/37 
f 604/644/37 603/643/36 673/722/36 674/723/37 
f 673/722/36 591/631/36 590/630/36 674/723/37 
f 590/630/36 598/638/36 675/724/36 674/723/37 
f 675/724/36 605/645/36 604/644/37 674/723/37 
f 676/725/38 583/623/38 582/622/2 677/726/2 
f 582/622/2 581/621/2 678/727/2 677/726/2 
f 678/727/2 588/628/2 586/626/2 677/726/2 
f 586/626/2 585/625/2 676/725/38 677/726/2 
f 679/728/2 551/588/38 680/729/38 681/730/2 
f 680/729/38 583/623/38 676/725/38 681/730/2 
f 676/725/38 585/625/2 682/731/2 681/730/2 
f 682/731/2 453/481/2 679/728/2 681/730/2 
f 454/482/2 453/481/2 682/731/2 683/732/38 
f 682/731/2 585/625/2 584/624/2 683/732/38 
f 584/624/2 161/167/2 274/280/38 683/732/38 
f 274/280/38 16/16/2 454/482/2 683/732/38 
f 684/733/144 550/587/2 549/586/2 685/734/8 
f 685/734/8 577/617/8 576/616/144 684/733/144 
f 576/616/144 583/623/38 680/729/38 684/733/144 
f 680/729/38 551/588/38 550/587/2 684/733/144 
f 686/735/144 580/620/8 579/619/8 687/736/8 
f 687/736/8 571/608/8 570/607/144 686/735/144 
f 570/607/144 574/614/38 688/737/2 686/735/144 
f 688/737/2 581/621/2 580/620/8 686/735/144 
f 689/738/38 562/599/38 561/598/2 690/739/2 
f 561/598/2 560/597/38 691/740/2 690/739/2 
f 691/740/2 567/604/2 565/602/2 690/739/2 
f 565/602/2 564/601/2 689/738/38 690/739/2 
f 624/741/186 623/742/187 692/743/188 693/744/189 
f 692/743/188 562/599/38 689/738/38 693/744/189 
f 689/738/38 564/601/2 694/745/190 693/744/189 
f 694/745/190 625/746/191 624/741/186 693/744/189 
f 633/747/192 625/746/191 694/745/190 695/748/193 
f 694/745/190 564/601/2 563/600/2 695/748/193 
f 563/600/2 137/140/2 292/301/79 695/748/193 
f 292/301/79 207/300/78 633/747/192 695/748/193 
f 696/749/194 697/750/195 698/751/196 699/752/197 
f 699/752/197 556/593/8 555/592/8 696/749/194 
f 555/592/8 562/599/38 692/743/188 696/749/194 
f 692/743/188 623/742/187 697/750/195 696/749/194 
f 700/753/8 559/596/8 558/595/8 701/754/8 
f 701/754/8 547/584/8 546/583/8 700/753/8 
f 546/583/8 553/590/38 702/755/38 700/753/8 
f 702/755/38 560/597/38 559/596/8 700/753/8 
f 703/756/37 544/581/37 543/580/36 704/757/37 
f 543/580/36 542/579/36 705/758/37 704/757/37 
f 705/758/37 706/759/37 707/760/37 704/757/37 
f 704/757/37 707/760/37 708/761/37 703/756/37 
f 709/762/198 710/763/199 711/764/200 712/765/201 
f 711/764/200 544/581/37 703/756/37 712/765/201 
f 703/756/37 708/761/37 713/766/202 712/765/201 
f 712/765/201 713/766/202 714/767/203 709/762/198 
f 715/768/36 311/320/37 310/319/64 716/769/64 
f 310/319/64 315/324/37 717/770/64 716/769/64 
f 717/770/64 540/577/64 538/575/36 716/769/64 
f 538/575/36 537/574/36 715/768/36 716/769/64 
f 718/771/204 317/326/87 316/325/86 719/772/205 
f 316/325/86 311/320/37 715/768/36 719/772/205 
f 715/768/36 537/574/36 720/773/206 719/772/205 
f 720/773/206 721/774/207 718/771/204 719/772/205 
f 722/775/208 721/774/207 720/773/206 723/776/209 
f 720/773/206 537/574/36 536/573/36 723/776/209 
f 536/573/36 544/581/37 711/764/200 723/776/209 
f 711/764/200 710/763/199 722/775/208 723/776/209 
f 724/777/37 325/334/37 324/333/37 725/778/36 
f 324/333/37 250/256/36 665/714/36 725/778/36 
f 665/714/36 531/568/36 529/566/36 725/778/36 
f 529/566/36 528/565/37 724/777/37 725/778/36 
f 541/578/64 540/577/64 726/779/64 727/780/64 
f 726/779/64 528/565/37 527/564/37 727/780/64 
f 527/564/37 535/572/36 728/781/36 727/780/64 
f 728/781/36 542/579/36 541/578/64 727/780/64 
f 729/782/150 517/554/150 516/553/151 730/783/151 
f 516/553/151 515/552/152 731/784/152 730/783/151 
f 731/784/152 522/559/152 520/557/151 730/783/151 
f 520/557/151 519/556/150 729/782/150 730/783/151 
f 732/785/210 733/786/211 734/787/212 735/788/213 
f 735/788/213 596/789/214 736/790/215 732/785/210 
f 736/790/215 513/550/152 511/548/151 732/785/210 
f 511/548/151 510/547/150 733/786/211 732/785/210 
f 737/791/216 594/792/217 671/793/218 738/794/219 
f 671/793/218 260/795/105 343/796/104 738/794/219 
f 343/796/104 87/541/13 505/539/146 738/794/219 
f 505/539/146 504/538/145 737/791/216 738/794/219 
f 736/790/215 596/789/214 595/797/220 739/798/221 
f 595/797/220 594/792/217 737/791/216 739/798/221 
f 737/791/216 504/538/145 740/799/222 739/798/221 
f 740/799/222 513/550/152 736/790/215 739/798/221 
f 514/551/152 513/550/152 740/799/222 741/800/222 
f 740/799/222 504/538/145 503/537/145 741/800/222 
f 503/537/145 508/545/145 742/801/222 741/800/222 
f 742/801/222 515/552/152 514/551/152 741/800/222 
f 743/802/150 493/527/150 492/526/151 744/803/151 
f 492/526/151 491/525/152 745/804/152 744/803/151 
f 745/804/152 498/532/152 496/530/151 744/803/151 
f 496/530/151 495/529/150 743/802/150 744/803/151 
f 746/805/150 526/563/150 525/562/151 747/806/151 
f 525/562/151 524/561/152 748/807/152 747/806/151 
f 748/807/152 489/523/152 487/521/151 747/806/151 
f 487/521/151 486/520/150 746/805/150 747/806/151 
f 749/808/145 460/491/145 459/490/146 750/809/146 
f 459/490/146 25/489/13 353/810/13 750/809/146 
f 353/810/13 60/514/13 481/512/146 750/809/146 
f 481/512/146 480/511/145 749/808/145 750/809/146 
f 748/807/152 524/561/152 751/811/222 752/812/222 
f 751/811/222 460/491/145 749/808/145 752/812/222 
f 749/808/145 480/511/145 753/813/222 752/812/222 
f 753/813/222 489/523/152 748/807/152 752/812/222 
f 490/524/152 489/523/152 753/813/222 754/814/222 
f 753/813/222 480/511/145 479/510/145 754/814/222 
f 479/510/145 484/518/145 755/815/222 754/814/222 
f 755/815/222 491/525/152 490/524/152 754/814/222 
f 756/816/147 469/500/147 468/499/148 757/817/148 
f 468/499/148 467/498/149 758/818/149 757/817/148 
f 758/818/149 474/505/149 472/503/148 757/817/148 
f 472/503/148 471/502/147 756/816/147 757/817/148 
f 364/819/52 363/820/53 759/821/177 760/822/177 
f 759/821/177 469/500/147 756/816/147 760/822/177 
f 756/816/147 471/502/147 761/823/177 760/822/177 
f 761/823/177 366/824/52 364/819/52 760/822/177 
f 368/825/53 366/824/52 761/823/177 762/826/177 
f 761/823/177 471/502/147 470/501/147 762/826/177 
f 470/501/147 478/509/147 637/684/177 762/826/177 
f 637/684/177 215/683/53 368/825/53 762/826/177 
f 763/827/223 721/828/224 722/829/225 764/830/226 
f 722/829/225 710/831/227 765/832/228 764/830/226 
f 765/832/228 465/496/149 463/494/148 764/830/226 
f 463/494/148 462/493/147 763/827/223 764/830/226 
f 373/833/118 317/834/117 718/835/229 766/836/230 
f 718/835/229 721/828/224 763/827/223 766/836/230 
f 763/827/223 462/493/147 767/837/177 766/836/230 
f 767/837/177 375/838/53 373/833/118 766/836/230 
f 377/839/53 375/838/53 767/837/177 768/840/177 
f 767/837/177 462/493/147 461/492/147 768/840/177 
f 461/492/147 469/500/147 759/821/177 768/840/177 
f 759/821/177 363/820/53 377/839/53 768/840/177 
f 765/832/228 710/831/227 709/841/231 769/842/232 
f 709/841/231 714/843/233 770/844/234 769/842/232 
f 770/844/234 771/845/182 772/846/180 769/842/232 
f 772/846/180 465/496/149 765/832/228 769/842/232 
f 466/497/149 465/496/149 772/846/180 773/847/181 
f 772/846/180 771/845/182 774/848/183 773/847/181 
f 774/848/183 775/849/183 776/850/181 773/847/181 
f 776/850/181 467/498/149 466/497/149 773/847/181 
f 758/818/149 467/498/149 776/850/181 777/851/180 
f 776/850/181 775/849/183 778/852/182 777/851/180 
f 778/852/182 779/853/183 780/854/181 777/851/180 
f 780/854/181 474/505/149 758/818/149 777/851/180 
f 475/506/149 474/505/149 780/854/181 781/855/180 
f 780/854/181 779/853/183 782/856/182 781/855/180 
f 782/856/182 643/692/182 641/690/180 781/855/180 
f 641/690/180 476/507/149 475/506/149 781/855/180 
f 783/857/145 484/518/145 483/517/146 784/858/146 
f 483/517/146 58/516/14 395/859/13 784/858/146 
f 395/859/13 33/860/13 785/861/146 784/858/146 
f 785/861/146 786/862/145 783/857/145 784/858/146 
f 745/804/152 491/525/152 755/815/222 787/863/222 
f 755/815/222 484/518/145 783/857/145 787/863/222 
f 783/857/145 786/862/145 788/864/222 787/863/222 
f 788/864/222 498/532/152 745/804/152 787/863/222 
f 499/533/155 498/532/152 788/864/222 789/865/235 
f 788/864/222 786/862/145 790/866/236 789/865/235 
f 790/866/236 791/867/237 792/868/238 789/865/235 
f 792/868/238 500/534/156 499/533/155 789/865/235 
f 793/869/145 508/545/145 507/544/146 794/870/146 
f 507/544/146 85/543/13 446/871/13 794/870/146 
f 446/871/13 27/487/14 457/485/146 794/870/146 
f 457/485/146 456/484/145 793/869/145 794/870/146 
f 731/784/152 515/552/152 742/801/222 795/872/222 
f 742/801/222 508/545/145 793/869/145 795/872/222 
f 793/869/145 456/484/145 796/873/222 795/872/222 
f 796/873/222 522/559/152 731/784/152 795/872/222 
f 523/560/152 522/559/152 796/873/222 797/874/222 
f 796/873/222 456/484/145 455/483/145 797/874/222 
f 455/483/145 460/491/145 751/811/222 797/874/222 
f 751/811/222 524/561/152 523/560/152 797/874/222 
f 798/875/36 535/572/36 534/571/37 799/876/37 
f 534/571/37 533/570/37 657/706/37 799/876/37 
f 657/706/37 661/710/37 800/877/37 799/876/37 
f 799/876/37 800/877/37 801/878/37 798/875/36 
f 705/758/37 542/579/36 728/781/36 802/879/36 
f 728/781/36 535/572/36 798/875/36 802/879/36 
f 798/875/36 801/878/37 803/880/37 802/879/36 
f 802/879/36 803/880/37 706/759/37 705/758/37 
f 804/881/2 553/590/38 552/589/38 805/882/38 
f 552/589/38 551/588/38 679/728/2 805/882/38 
f 679/728/2 453/481/2 451/479/8 805/882/38 
f 451/479/8 450/478/144 804/881/2 805/882/38 
f 691/740/2 560/597/38 702/755/38 806/883/38 
f 702/755/38 553/590/38 804/881/2 806/883/38 
f 804/881/2 450/478/144 807/884/144 806/883/38 
f 807/884/144 567/604/2 691/740/2 806/883/38 
f 568/605/2 567/604/2 807/884/144 808/885/144 
f 807/884/144 450/478/144 449/477/8 808/885/144 
f 449/477/8 14/14/8 416/437/2 808/885/144 
f 416/437/2 139/142/38 568/605/2 808/885/144 
f 809/886/2 574/614/38 573/613/164 810/887/239 
f 573/613/164 500/612/163 792/888/240 810/887/239 
f 792/888/240 791/889/241 811/890/242 810/887/239 
f 811/890/242 812/891/2 809/886/2 810/887/239 
f 678/727/2 581/621/2 688/737/2 813/892/2 
f 688/737/2 574/614/38 809/886/2 813/892/2 
f 809/886/2 812/891/2 814/893/2 813/892/2 
f 814/893/2 588/628/2 678/727/2 813/892/2 
f 589/629/38 588/628/2 814/893/2 815/894/2 
f 814/893/2 812/891/2 816/895/2 815/894/2 
f 816/895/2 5/5/2 422/444/38 815/894/2 
f 422/444/38 163/169/38 589/629/38 815/894/2 
f 817/896/36 598/638/36 597/637/170 818/897/243 
f 597/637/170 596/636/169 735/898/244 818/897/243 
f 735/898/244 734/899/245 819/900/246 818/897/243 
f 818/897/243 819/900/246 820/901/37 817/896/36 
f 653/702/37 605/645/36 675/724/36 821/902/37 
f 675/724/36 598/638/36 817/896/36 821/902/37 
f 817/896/36 820/901/37 822/903/37 821/902/37 
f 821/902/37 822/903/37 654/703/37 653/702/37 
f 628/668/149 614/654/149 650/699/181 823/904/180 
f 650/699/181 649/698/183 824/905/182 823/904/180 
f 824/905/182 825/906/183 826/907/181 823/904/180 
f 826/907/181 621/661/149 628/668/149 823/904/180 
f 622/662/173 621/661/149 826/907/181 827/908/247 
f 826/907/181 825/906/183 828/909/248 827/908/247 
f 828/909/248 698/910/249 697/911/250 827/908/247 
f 697/911/250 623/663/174 622/662/173 827/908/247 
f 816/895/2 812/891/2 811/890/242 829/912/251 
f 811/890/242 791/889/241 830/913/252 829/912/251 
f 830/913/252 7/7/5 6/6/4 829/912/251 
f 6/6/4 5/5/2 816/895/2 829/912/251 
f 790/866/236 786/862/145 785/861/146 831/914/253 
f 785/861/146 33/860/13 32/915/20 831/914/253 
f 32/915/20 7/916/19 830/917/254 831/914/253 
f 830/917/254 791/867/237 790/866/236 831/914/253 
f 717/770/64 315/324/37 328/337/37 832/918/64 
f 328/337/37 325/334/37 724/777/37 832/918/64 
f 724/777/37 528/565/37 726/779/64 832/918/64 
f 726/779/64 540/577/64 717/770/64 832/918/64 
# 768 polygons

